<?xml version="1.0" encoding="UTF-8" standalone="no"?>
<!-- Created with Inkscape (http://www.inkscape.org/) -->

<svg
   width="210mm"
   height="297mm"
   viewBox="0 0 210 297"
   version="1.1"
   id="svg5"
   inkscape:version="1.1.2 (b8e25be833, 2022-02-05)"
   sodipodi:docname="Campfire.svg"
   xmlns:inkscape="http://www.inkscape.org/namespaces/inkscape"
   xmlns:sodipodi="http://sodipodi.sourceforge.net/DTD/sodipodi-0.dtd"
   xmlns="http://www.w3.org/2000/svg"
   xmlns:svg="http://www.w3.org/2000/svg">
  <sodipodi:namedview
     id="namedview7"
     pagecolor="#ffffff"
     bordercolor="#666666"
     borderopacity="1.0"
     inkscape:pageshadow="2"
     inkscape:pageopacity="0.0"
     inkscape:pagecheckerboard="0"
     inkscape:document-units="mm"
     showgrid="false"
     inkscape:zoom="1.0998546"
     inkscape:cx="-25.457911"
     inkscape:cy="239.12252"
     inkscape:window-width="3840"
     inkscape:window-height="2054"
     inkscape:window-x="-11"
     inkscape:window-y="-11"
     inkscape:window-maximized="1"
     inkscape:current-layer="layer1" />
  <defs
     id="defs2" />
  <g
     inkscape:label="Layer 1"
     inkscape:groupmode="layer"
     id="layer1">
    <path
       style="fill:#ffdd55;stroke:none;stroke-width:0.264583px;stroke-linecap:butt;stroke-linejoin:miter;stroke-opacity:1;fill-opacity:1;opacity:0.32338308"
       d="m 87.925446,39.211623 c -1.09937,-0.688536 -2.192967,-1.480826 -3.367868,-2.04478 -0.503447,-0.241654 -1.048975,-0.384699 -1.563653,-0.601403 -0.643419,-0.270915 -1.275453,-0.478295 -1.924497,-0.721688 -0.167889,-0.06296 -0.305303,-0.205396 -0.481124,-0.240562 -0.318175,-0.06363 -1.833107,0.08265 -1.924497,0.120282 -0.341805,0.140743 -0.561314,0.481124 -0.841968,0.721686 -0.280656,0.240562 -0.546251,0.499898 -0.841967,0.721685 -0.187029,0.140272 -0.453364,0.179906 -0.601406,0.360844 -1.209265,1.477992 -0.962247,3.779486 -0.962247,5.53293 0,1.563894 -0.199523,3.401854 0,4.931521 0.262493,2.012455 1.162256,4.198162 0.601403,6.254615 -0.114107,0.418399 -0.450768,0.743884 -0.721686,1.082529 -0.497154,0.621446 -1.00091,1.241476 -1.563653,1.804215 -0.243879,0.243883 -0.575029,0.383003 -0.841967,0.601406 -0.443225,0.362638 -0.795872,0.81892 -1.323092,1.08253 -0.273108,0.136554 -0.580136,0.203745 -0.841967,0.360844 -1.340991,0.804595 -2.616359,1.894533 -4.089556,2.5259 -0.266994,0.114427 -0.877888,0.09287 -1.202809,0.240564 -1.650844,0.750382 -2.927316,1.727907 -4.330118,2.886745 -0.692571,0.572121 -1.830713,1.205859 -2.405621,1.924497 -0.892503,1.115626 -0.185518,2.593533 -1.202812,4.089556 -0.482486,0.709536 -1.031065,1.372031 -1.563653,2.044777 -0.260935,0.329602 -1.768718,1.93036 -1.804215,2.285341 -0.153246,1.532456 0.410459,2.320922 0.962248,3.60843 0.03158,0.07371 -0.03586,0.168841 0,0.240561 0.05379,0.107583 0.2448,-0.03165 0.360844,0 0.366958,0.100082 0.781552,0.128273 1.082529,0.360844 0.599519,0.463265 2.308439,2.538392 2.766462,3.247589 0.569357,0.881583 3.240963,5.528302 4.209838,6.856021 1.157513,1.586222 2.588152,3.008431 4.209836,4.089553 0.286975,0.191318 0.374288,0.582406 0.601406,0.841968 0.09519,0.108794 0.240562,0.160374 0.360844,0.240561 0.12028,0.120283 0.256408,0.226574 0.360841,0.360845 0.177504,0.228216 0.300514,0.495921 0.481127,0.721685 0.736544,0.920684 0.176569,0.132429 0.962247,0.721688 0.03207,0.02405 -0.02835,0.09193 0,0.12028 0.131836,0.131836 3.558011,1.181801 3.608432,1.202811 2.323838,0.968267 4.651613,1.918126 6.976301,2.886747 1.501653,0.62569 3.121175,1.37609 4.690959,1.80421 1.294646,0.35309 2.934171,0.41554 4.209838,0.96225 0.454515,0.19479 0.426538,0.54682 0.721686,0.84197 0.06339,0.0634 0.177167,0.0569 0.240561,0.12028 0.06339,0.0634 0.04009,0.20047 0.120283,0.24056 0.340206,0.1701 0.723852,0.23425 1.082529,0.36085 1.288746,0.45485 2.577785,0.94594 3.848994,1.44337 1.137399,0.44507 2.198,1.09241 3.367868,1.44337 0.565976,0.16979 3.094774,0.55612 3.728714,0.60141 2.04942,0.14638 4.08143,-0.59887 6.01405,-1.20281 0.56891,-0.17779 1.09697,-0.49783 1.68394,-0.60141 0.79065,-0.13953 1.60313,-0.0952 2.40562,-0.12028 2.00659,-0.0627 4.19601,-0.16498 6.13433,0.48112 0.57935,0.19312 1.09476,0.56101 1.68394,0.72169 0.30944,0.0844 0.64149,0 0.96224,0 1.91787,0 3.81583,0.0708 5.65321,-0.60141 1.02842,-0.37624 2.00049,-0.89172 3.00703,-1.32309 2.78358,-1.19296 5.42282,-2.03746 7.81827,-3.96927 0.46399,-0.37419 1.66129,-1.933634 2.04478,-2.405621 1.82924,-2.251372 2.66258,-3.701362 2.88674,-6.615459 0.2628,-3.416414 -0.23,-6.96631 0.48112,-10.344171 0.53585,-2.545282 2.14361,-4.857401 3.72872,-6.856019 0.71199,-0.897734 1.89501,-1.956321 2.28534,-3.127308 0.22063,-0.661901 0.0869,-3.028829 0,-3.488151 -0.48554,-2.566429 -1.79196,-5.053644 -2.76647,-7.457424 -1.40855,-3.474439 -2.4878,-6.632612 -5.89377,-8.539953 -2.46063,-1.377953 -1.14313,-0.622798 -3.1273,-1.323094 -1.47553,-0.520772 -2.86003,-1.269635 -4.33012,-1.804215 -0.71876,-0.261366 -1.35981,-0.49948 -2.04478,-0.841968 -0.0359,-0.01794 -0.0802,0 -0.12028,0 -0.12028,-0.04009 -0.25941,-0.04421 -0.36085,-0.120279 -1.28524,-0.963936 -2.28709,-2.720634 -3.24758,-3.969277 -0.67574,-0.878459 -1.47869,-1.540735 -2.28535,-2.285338 -0.4583,-0.42305 -0.83076,-0.940171 -1.32309,-1.323092 -1.92325,-1.495861 -5.01389,-1.936853 -7.33714,-2.285341 -0.39848,-0.05977 -0.80989,-0.03098 -1.20281,-0.120279 -0.49454,-0.112395 -0.95136,-0.358124 -1.44337,-0.481127 -3.90077,-0.97519 -0.16206,0.138399 -3.36787,-0.601403 -0.56882,-0.131267 -1.11243,-0.362061 -1.68394,-0.481126 -2.37244,-0.494258 -0.12287,0.152011 -2.16506,-0.12028 -0.28932,-0.03858 -0.55574,-0.183319 -0.84196,-0.240561 -0.31697,-0.06339 -0.64594,-0.05369 -0.96225,-0.120283 -0.44733,-0.09417 -0.87272,-0.282516 -1.32309,-0.360841 -1.66617,-0.289769 -3.36797,-0.240564 -5.051808,-0.240564 -0.441028,0 -0.897601,-0.116041 -1.323091,0 -0.668454,0.182308 -2.047184,0.923091 -2.766462,1.202811 -0.603692,0.234768 -1.189723,0.516856 -1.804218,0.721686 -0.07607,0.02535 -0.168838,-0.03586 -0.240561,0 -0.101431,0.05072 -0.146207,0.177659 -0.240562,0.240561 -0.152792,0.101862 -0.876274,0.331381 -1.08253,0.360845 -0.479427,0.06849 -0.865902,0.08817 -1.323091,0.240561 -0.596112,0.198705 -1.576194,-0.057 -2.285341,0.120283 z"
       id="path103388"
       inkscape:export-filename="C:\Users\wenze\Desktop\campfire.png"
       inkscape:export-xdpi="32.512001"
       inkscape:export-ydpi="32.512001" />
    <path
       style="fill:#61371b;stroke:none;stroke-width:0.264583px;stroke-linecap:butt;stroke-linejoin:miter;stroke-opacity:1;fill-opacity:1"
       d="m 91.090206,29.17268 c 0.141753,-0.0567 0.275048,-0.142793 0.425257,-0.170104 0.747482,-0.135905 1.933996,0 2.72165,0 0.738991,0 1.56864,-0.114908 2.296392,0 0.292365,0.04617 0.559597,0.200607 0.850514,0.255157 0.779269,0.14611 1.095732,-0.28719 1.786083,-0.42526 0.3058,-0.06116 0.623713,0 0.935568,0 0.47499,0 0.93065,-0.08083 1.36082,0.170103 0.21066,0.122886 0.37723,0.316191 0.59536,0.42526 0.24057,0.120279 0.51031,0.170101 0.76547,0.255153 0.2835,0.198454 0.548,0.427297 0.85051,0.595361 0.44425,0.246806 1.28016,0.286289 1.53093,0.850516 0.74284,1.671383 0.14357,4.207658 0.42526,6.038659 0.0657,0.427273 0.58881,1.474843 0.93557,1.871134 0.20011,0.228703 0.53505,0.474744 0.68041,0.765463 0.17659,0.35319 0.32351,0.724128 0.42526,1.10567 0.21214,0.795541 0.1701,1.65431 0.1701,2.466496 0,0.283506 -0.0523,0.571865 0,0.850516 0.10771,0.57445 0.20046,1.161529 0.42526,1.70103 0.0545,0.13085 0.20748,0.206711 0.25515,0.340207 0.0972,0.272275 0.0907,0.572519 0.1701,0.850516 0.31058,1.08702 0.14717,-0.94901 0.42526,1.275773 0.0774,0.618895 0,1.247421 0,1.871134 0,1.16237 0,2.324743 0,3.487113 0,1.725001 0.0615,3.464925 0,5.188143 -0.18481,5.174692 0.0468,-1.912154 -0.25515,2.466496 -0.0507,0.735367 0.0699,1.477547 0,2.21134 -0.28804,3.024433 -0.0752,-0.723093 -0.25516,1.61598 -0.0645,0.837895 -0.0149,1.718675 0.085,2.551546 0.15935,1.327907 0.54538,2.754482 1.02062,3.997423 0.15849,0.414491 0.42056,0.782844 0.59536,1.19072 0.26182,0.61091 0.563,1.531684 0.59537,2.21134 0.0805,1.691195 -0.14662,3.41707 0,5.103093 0.13399,1.54097 0.48875,3.059501 0.68041,4.592785 0.0704,0.563328 0.005,1.139018 0.085,1.701028 0.22168,1.55175 0.74569,3.02048 0.85051,4.59279 0.0959,1.43863 -0.0655,2.89713 0,4.33762 0.0352,0.77387 0.23692,1.09547 0.34021,1.95619 0.30983,2.581919 -0.21688,-0.50606 0,1.44588 0.0846,0.76177 0.28437,2.176269 0.51031,2.891749 0.0999,0.31643 0.26822,0.61163 0.3402,0.93557 0.0992,0.44625 0.0973,0.90952 0.17011,1.36082 0.15779,0.97836 0.54822,2.61715 0.3402,3.65722 -0.0786,0.3931 -2.03636,0.65874 -2.29639,0.68041 -0.36728,0.0306 -0.74082,-0.0521 -1.10567,0 -0.23979,0.0343 -0.44616,0.19351 -0.68041,0.25515 -1.22713,0.32293 -2.51999,0.41625 -3.74227,0.76547 -0.4006,0.11446 -0.7076,0.48162 -1.10567,0.59536 -0.139,0.0397 -0.2899,0.0343 -0.42526,0.085 -0.24239,0.0909 -0.31565,0.26953 -0.51031,0.42526 -0.39572,0.31657 0.0939,-0.17454 -0.42526,0.0851 -0.0567,0.0284 -0.0323,0.13494 -0.085,0.1701 -0.0472,0.0315 -0.11631,-0.0179 -0.1701,0 -0.12028,0.0401 -0.21644,0.1426 -0.34021,0.17011 -0.7977,0.17726 -1.75755,-0.10394 -2.55154,-0.17011 -0.16952,-0.0141 -0.34125,-0.0188 -0.51031,0 -0.315501,0.0351 -0.860937,0.46964 -1.105671,0.0851 -0.618715,-0.97226 -0.774396,-2.14153 -1.020617,-3.23195 -0.09694,-0.42931 -0.251037,-0.84479 -0.340206,-1.27578 -0.133231,-0.64394 -0.102847,-1.31648 -0.255157,-1.95618 -0.08306,-0.34886 -0.260731,-0.67093 -0.340206,-1.02062 -0.06314,-0.27784 -0.04279,-0.56875 -0.08505,-0.85052 -0.09404,-0.62692 -0.202687,-1.25229 -0.340207,-1.87113 -0.0389,-0.17503 -0.142838,-0.33309 -0.170103,-0.51031 -0.134263,-0.872699 -0.208746,-1.754849 -0.255154,-2.636599 -0.02236,-0.42467 0.04696,-0.85312 0,-1.27577 -0.106619,-0.95956 -0.371811,-1.95284 -0.595363,-2.89175 -0.143414,-0.60235 -0.254087,-1.2224 -0.510307,-1.78609 -0.06841,-0.15049 -0.197112,-0.27047 -0.255156,-0.42525 -0.02986,-0.0796 0.02537,-0.17398 0,-0.25516 -0.288999,-0.9248 -0.689502,-1.81108 -1.020617,-2.72165 -0.144031,-0.39608 -0.32304,-0.78184 -0.425259,-1.19072 -0.09724,-0.38896 -0.08691,-0.79851 -0.170104,-1.19072 -0.115578,-0.54488 -0.309676,-1.071106 -0.425257,-1.615981 -0.0832,-0.39221 -0.09358,-0.797155 -0.170103,-1.190723 -0.418859,-2.154131 -0.855321,-4.309099 -1.275773,-6.463916 -0.26933,-1.380315 -0.590801,-2.770224 -0.765463,-4.167526 -0.05637,-0.450982 -0.02418,-0.910426 -0.08505,-1.360824 -0.08116,-0.600606 -0.217416,-1.192588 -0.340206,-1.786083 -0.04737,-0.228936 -0.150688,-0.447436 -0.170104,-0.680413 -0.08711,-1.045345 0,-2.097936 0,-3.146906 0,-1.757733 0,-3.515463 0,-5.273196 0,-0.963917 0.106448,-1.933731 0,-2.891753 -0.07927,-0.713388 -0.24657,-1.414645 -0.340206,-2.12629 -0.04822,-0.366485 -0.02885,-0.740322 -0.08505,-1.10567 -0.210542,-1.368528 -0.66086,-2.707486 -0.850514,-4.082473 -0.261149,-1.893334 -0.08505,-3.880461 -0.08505,-5.783506 0,-1.13402 -0.0629,-2.269786 0,-3.40206 0.06929,-1.247195 0.270838,-2.493621 0.340207,-3.742269 0.05475,-0.98557 0,-1.988566 0,-2.976803 0,-0.42526 0.03262,-0.851768 0,-1.275773 0.331221,-0.330798 -0.148511,-0.274122 -0.170103,-0.42526 -0.05982,-0.418743 -0.222679,-2.734027 -0.08505,-3.146906 0.04724,-0.141716 1.880865,-0.11016 2.21134,0 z"
       id="path6357"
       inkscape:export-filename="C:\Users\wenze\Desktop\campfire.png"
       inkscape:export-xdpi="32.512001"
       inkscape:export-ydpi="32.512001" />
    <path
       style="fill:#a55d2d;stroke:none;stroke-width:0.264583px;stroke-linecap:butt;stroke-linejoin:miter;stroke-opacity:1;fill-opacity:1"
       d="m 95.512886,29.68299 c -0.646967,0.01886 -1.295318,-0.128725 -1.871136,0.255154 -0.650774,0.43385 -0.108363,4.12306 -0.08505,4.507732 0.09544,1.574731 0.05689,3.595275 0,5.188143 -0.05459,1.528514 -0.197075,3.065463 0,4.592786 0.196736,1.524714 0.546769,3.2004 0.935567,4.677833 0.107259,0.407585 0.316663,0.783492 0.425256,1.190723 0.118917,0.445929 0.128368,0.917067 0.255157,1.360824 0.340159,1.190556 1.145939,2.354479 1.360823,3.572166 0.05442,0.308377 0.02363,0.628504 0.08505,0.935566 0.109236,0.546182 0.301144,1.072983 0.425257,1.61598 0.366839,1.604917 0.551302,3.246826 0.935567,4.847936 0.115548,0.48145 0.25881,0.957493 0.340206,1.445877 0.157128,0.942763 -0.09989,1.936221 0.08505,2.891753 0.111059,0.573812 0.313701,1.127315 0.425257,1.70103 0.08725,0.448736 0.08833,0.911061 0.170103,1.360826 0.893077,4.911921 -0.103153,-1.534948 0.51031,2.636597 0.112585,0.765585 0.306594,1.523304 0.340207,2.296393 0.04895,1.125857 0,2.274432 0,3.402062 0,1.374968 0.16521,2.745224 0.5103,4.082473 0.35502,1.065036 0.43168,1.216406 0.68042,2.21134 0.29464,1.178563 0.3966,2.389624 0.68041,3.572166 0.29899,1.245786 0.6733,2.48924 0.93557,3.742267 0.1134,0.680413 0.2268,1.360826 0.3402,2.041236 0,0.170104 -0.023,0.341768 0,0.51031 0.0624,0.457282 0.19791,0.902878 0.25516,1.360826 0.10387,0.830948 -0.14544,1.727439 0,2.551547 0.19805,1.122288 0.58739,2.189224 0.76546,3.317014 0.15993,1.01286 0.28917,2.06673 0.51031,3.06185 0.15521,0.69846 0.1838,0.29336 0.25516,0.93557 0.0432,0.38903 0.0436,0.8111 0.1701,1.19072 0.19564,0.58694 0.82665,0.99079 1.19072,1.44588 0.0396,0.0495 0.0567,0.1134 0.0851,0.1701 0.085,0.1134 0.1629,0.23258 0.25516,0.3402 0.28604,0.33373 0.54229,0.37688 0.93556,0.59537 0.84908,0.47171 1.874,-0.032 2.72165,-0.34021 0.16613,-0.0604 1.16767,-0.43321 1.27577,-0.59536 0.11009,-0.16513 -0.0326,-0.39961 0,-0.59536 0.007,-0.0396 0.0811,-0.0452 0.0851,-0.0851 0.0658,-0.65804 -0.0981,-2.11642 -0.3402,-2.72165 -0.231,-0.5775 -0.4924,-1.00495 -0.68041,-1.61598 -0.27048,-0.87906 -0.35988,-1.8669 -0.68042,-2.72165 -0.0803,-0.21402 -0.26332,-0.38011 -0.3402,-0.59536 -0.23049,-0.645378 -0.19681,-1.530206 -0.34021,-2.211344 -0.14351,-0.681664 -0.43659,-1.492353 -0.68041,-2.126287 -0.83767,-2.177954 0.0242,0.01347 -0.93557,-1.786083 -0.0844,-0.15821 -0.0857,-0.352099 -0.1701,-0.510309 -1.61439,-2.421583 0.36334,0.670628 -0.76546,-1.445877 -0.62225,-1.166714 -0.25046,-5.29e-4 -0.85052,-1.275773 -0.27127,-0.576458 -0.46461,-1.186643 -0.68041,-1.786083 -0.0757,-0.210209 -0.54019,-1.743273 -0.59536,-2.041237 -0.17845,-0.963636 -0.12093,-1.467781 -0.34021,-2.381443 -0.09,-0.374959 -0.27123,-0.726281 -0.3402,-1.10567 -0.13216,-0.726881 0.0211,-1.553368 -0.085,-2.296392 -0.19448,-1.36134 -0.11735,-0.34234 -0.34021,-1.530927 -0.22912,-1.221968 -0.52052,-2.432471 -0.76547,-3.657217 -0.10835,-0.541792 -0.37455,-1.628256 -0.42525,-2.211339 -0.10258,-1.179658 0,-2.485531 0,-3.657217 0,-1.421251 -0.0851,-2.832306 -0.0851,-4.252576 0,-1.919089 0.0913,-3.865597 0,-5.783506 -0.0572,-1.201978 -0.42753,-2.402573 -0.68042,-3.572166 -0.14067,-0.6506 -0.66864,-2.975327 -0.76546,-3.487113 -0.18803,-0.993881 -0.11965,-1.199933 -0.34021,-2.12629 -0.0685,-0.287938 -0.20649,-0.558553 -0.25515,-0.850513 -0.145597,-0.873596 0.0361,-1.898388 -0.08505,-2.806703 -0.17562,-1.317149 -0.31324,-1.185545 -0.51031,-2.466493 -0.05191,-0.337415 -0.03677,-0.682665 -0.08505,-1.02062 -0.105643,-0.739502 -0.31165,-1.472877 -0.42526,-2.21134 -0.06035,-0.392292 0,-0.793813 0,-1.19072 0,-1.037653 0.08602,-2.114658 0,-3.146909 -0.06831,-0.819703 -0.340204,-1.550575 -0.340204,-2.381443 0,-0.984943 0.170082,-3.146946 -0.255156,-3.997423 -0.10673,-0.213458 -0.402476,-0.240723 -0.51031,-0.510307 -0.133104,-0.332764 -0.425299,-1.020641 -0.765463,-1.190723 -0.367152,-0.183576 -0.726863,0.242287 -1.020617,0.340206 -0.252656,0.08422 -0.574868,0.08505 -0.850516,0.08505"
       id="path10688"
       inkscape:export-filename="C:\Users\wenze\Desktop\campfire.png"
       inkscape:export-xdpi="32.512001"
       inkscape:export-ydpi="32.512001" />
    <path
       style="opacity:0.464345;fill:#000000;fill-opacity:1;stroke:none;stroke-width:0.253735px;stroke-linecap:butt;stroke-linejoin:miter;stroke-opacity:1"
       d="m 91.090206,40.115604 c 0.09433,-0.318962 0.34267,-0.333183 0.434278,-0.643403 0.01269,-0.04304 -0.01,-0.09369 0,-0.137867 0.153617,-0.682766 0.0049,0.290548 0.108564,-0.367656 0.109179,-0.693237 0.165559,-1.385943 0.289517,-2.068071 0.03799,-0.209031 0.09089,-0.904522 0.180951,-1.057014 0.04795,-0.08118 0.149424,-0.278704 0.217138,-0.321699 0.306914,-0.194872 0.96178,-0.137867 1.266646,-0.137867 0.609247,0 1.352481,-0.05697 1.881874,0.413615 0.189868,0.168774 0.376141,0.362385 0.579038,0.505528 0.146794,0.103566 0.555927,0.29789 0.651418,0.45957 0.123331,0.20882 0.158319,0.402091 0.25333,0.643399 0.298585,0.75834 0.116734,0.247938 0.398087,0.873184 0.165935,0.368757 0.0837,0.255193 0.217141,0.735315 0.07909,0.28458 0.211662,0.520586 0.325708,0.781271 0.03417,0.07809 0.07237,0.153195 0.108564,0.229786 0.04826,0.153196 0.08214,0.315001 0.144759,0.45957 0.07097,0.163843 0.173079,0.30279 0.25333,0.459573 0.554525,1.083358 -0.0159,-0.0084 0.325706,0.735312 0.140085,0.304957 0.37224,0.54053 0.470472,0.873184 0.111218,0.376642 0.147301,0.767446 0.253329,1.148929 0.258418,0.92978 -0.05472,-0.203563 0.253328,0.735312 0.03829,0.116607 0.04094,0.247818 0.07234,0.367657 0.06518,0.24834 0.137855,0.493679 0.217144,0.735315 0.04809,0.146622 0.142462,0.312975 0.180942,0.45957 0.0511,0.194474 0.002,0.608646 0.0362,0.827229 0.0291,0.184936 0.0264,0.0211 0.0723,0.137867 0.0381,0.09688 0.0343,0.258786 0.0723,0.367658 0.064,0.18284 0.14866,0.377548 0.21715,0.551483 0.0711,0.180684 0.0839,0.371111 0.14476,0.551486 0.0171,0.05077 0.0586,0.08547 0.0723,0.137867 0.0394,0.150177 0.005,0.854185 -0.0362,1.011059 -0.0557,0.212321 -0.21352,0.436598 -0.28952,0.643399 -0.0891,0.242435 -0.12692,0.521284 -0.25333,0.735313 -0.0847,0.14346 -0.507689,0.718963 -0.687602,0.781271 -0.0823,0.02851 -0.170577,0.01967 -0.253329,0.04597 -0.344668,0.109426 -0.399149,0.210124 -0.687608,-0.137867 -0.17316,-0.208898 -0.347587,-0.417159 -0.506658,-0.643401 -0.410198,-0.583413 -0.874894,-1.46645 -1.158075,-2.159983 -0.205301,-0.502799 -0.07747,-0.48424 -0.289519,-0.965102 -0.310595,-0.704318 -0.287443,-0.509807 -0.542849,-1.011055 -0.364093,-0.71455 -0.07544,-0.20562 -0.434278,-0.965098 -0.419933,-0.888775 -1.1053,-1.564071 -1.737114,-2.205941 -0.251336,-0.255335 -0.485956,-0.501316 -0.687608,-0.827228 -0.09097,-0.147032 -0.155502,-0.319812 -0.25333,-0.459571 -0.0965,-0.137867 -0.219515,-0.241794 -0.325709,-0.367658 -0.166067,-0.08877 -0.210949,-0.313839 -0.32571,-0.459569 -0.159988,-0.203173 -0.287571,-0.349044 -0.434276,-0.597444 -0.258161,-0.437113 -0.414591,-0.973551 -0.65142,-1.424668"
       id="path69705"
       inkscape:export-filename="C:\Users\wenze\Desktop\campfire.png"
       inkscape:export-xdpi="32.512001"
       inkscape:export-ydpi="32.512001" />
    <path
       style="fill:#784421;stroke:none;stroke-width:0.264583px;stroke-linecap:butt;stroke-linejoin:miter;stroke-opacity:1;fill-opacity:1"
       d="m 121.87886,32.064433 c 0.91904,0.801526 1.88674,1.855721 3.06186,2.29639 1.2186,0.456975 2.56935,0.689314 3.74227,1.275773 0.6039,0.301954 0.72559,1.3672 0.93557,1.871136 0.17067,0.40962 0.4094,0.787808 0.59536,1.190721 0.15444,0.334634 0.26043,0.690972 0.42525,1.020619 0.11962,0.239221 0.27188,0.461301 0.42526,0.680413 0.046,0.06569 0.14032,0.09565 0.17011,0.170101 0.0316,0.07897 0.007,0.170355 0,0.255156 -0.0219,0.284081 0.0255,0.587923 -0.0851,0.850516 -0.12543,0.297913 -0.41283,0.498687 -0.59536,0.765464 -0.18669,0.272862 -0.34876,0.562046 -0.51031,0.850514 -1.45198,2.592818 0.0415,0.06717 -1.27577,2.296392 -0.35621,0.602827 -0.84562,1.135957 -1.10567,1.786083 -0.21294,0.532345 -0.0976,1.149737 -0.25515,1.70103 -0.97653,3.417843 -0.0823,0.216623 -0.85052,2.041237 -0.13916,0.330507 -0.17983,0.699871 -0.34021,1.02062 -0.15476,0.309528 -0.41056,0.557924 -0.59536,0.850516 -0.15586,0.246785 -0.25012,0.531953 -0.42525,0.765463 -0.64998,0.86663 -2.58373,2.161953 -3.40207,2.8067 -2.66427,2.099125 0.19685,-0.208666 -2.21134,1.871134 -0.91298,0.788487 -1.97838,1.415195 -2.72165,2.381443 -0.29739,0.386612 -0.61138,0.765603 -0.85051,1.190723 -0.34627,0.615587 -0.45123,1.357257 -0.85052,1.956186 -0.12282,0.184235 -0.30243,0.326072 -0.42526,0.51031 -0.10549,0.158239 -0.1701,0.340204 -0.25515,0.510307 -0.1701,0.255156 -0.33346,0.514935 -0.51031,0.765466 -0.32698,0.463227 -0.73313,0.872098 -1.02062,1.360823 -0.14157,0.240671 -0.20956,0.518692 -0.34021,0.765464 -0.72196,1.363723 -0.14251,0.02988 -0.76546,1.275773 -0.12487,0.249743 -0.1946,0.527211 -0.34021,0.765463 -1.29842,1.669405 0.0478,-0.1647 -1.02061,1.61598 -1.18825,1.980417 -3.15143,3.413144 -4.67784,5.103093 -0.86854,0.961596 -0.95674,1.193641 -1.61598,2.041236 -0.59223,0.761442 -1.23251,1.505585 -1.78608,2.296393 -0.95616,1.365941 -1.76155,2.918802 -2.466494,4.42268 -0.430681,0.918787 -0.578657,1.503087 -1.10567,2.381443 -0.113922,0.18987 -0.309795,0.321374 -0.425257,0.51031 -0.19834,0.324556 -0.314616,0.69446 -0.51031,1.020619 -0.491178,0.818629 -1.267465,1.409841 -1.786083,2.21134 -0.256627,0.396605 -0.727789,1.460717 -1.020619,1.786083 -0.448316,0.498129 -1.199981,1.101111 -1.786081,1.445877 -1.642057,0.965914 -3.494225,1.78295 -4.932989,3.061853 -0.410403,0.364803 -0.770948,1.019869 -1.10567,1.445877 -0.136803,0.174111 -0.309211,0.32173 -0.42526,0.51031 -0.113157,0.183882 -0.152791,0.405257 -0.255153,0.595357 -0.380434,0.70652 -0.334772,0.35196 -0.765464,1.10567 -0.107121,0.18747 -0.151765,0.40582 -0.255156,0.59537 -0.135758,0.24888 -0.364447,0.4373 -0.51031,0.68041 -0.290734,0.48456 -0.249465,0.58398 -0.510307,1.10567 -0.177154,0.3543 -0.484616,0.71806 -0.595363,1.10567 -0.352948,1.23532 -0.908573,2.45121 -1.360823,3.65721 -0.160356,0.42762 -0.7341,2.20612 -1.275773,2.29639 -1.364848,0.22748 -2.520725,-1.06922 -3.657217,-1.53092 -1.602343,-0.65095 -1.136488,-0.17891 -2.296392,-0.51031 -0.546783,-0.15623 -1.130337,-0.35392 -1.70103,-0.42526 -0.140658,-0.0176 -0.28896,0.0389 -0.425257,0 -0.792205,-0.22634 -1.881862,-0.79228 -2.211343,-1.61598 -0.133797,-0.3345 -0.09922,-1.34672 -0.08505,-1.53093 0.03075,-0.39975 0.062,-0.80463 0.170103,-1.19072 0.481161,-1.71843 0.221446,-0.34079 0.765464,-1.36082 0.442521,-0.82973 0.620045,-1.82723 1.10567,-2.6366 0.145862,-0.243105 0.35892,-0.440712 0.510309,-0.680414 0.189691,-0.300344 0.316712,-0.637725 0.51031,-0.935567 0.176165,-0.271023 0.433404,-0.485719 0.59536,-0.765463 0.305978,-0.528505 0.420383,-1.148469 0.680413,-1.70103 0.348703,-0.740995 0.794203,-1.44998 1.10567,-2.211343 0.159578,-0.39008 0.220578,-0.822298 0.425257,-1.19072 0.190662,-0.247859 1.231995,-1.567309 1.445877,-1.956186 0.14715,-0.267547 0.193055,-0.582967 0.340206,-0.850514 0.484463,-0.880845 1.255189,-1.450467 1.871133,-2.211342 0.306899,-0.379108 0.560597,-0.798476 0.850517,-1.19072 2.026293,-2.741457 -0.909273,1.278416 1.275773,-1.53093 0.18827,-0.242059 0.32085,-0.524333 0.51031,-0.765463 0.581787,-0.740458 1.267179,-1.409401 1.78608,-2.21134 0.369075,-0.570386 0.72952,-1.136801 1.105673,-1.70103 0.162023,-0.243038 0.298346,-0.718011 0.425257,-0.935567 0.09147,-0.156805 0.243993,-0.271319 0.340206,-0.425259 0.161832,-0.258932 0.188711,-0.585402 0.340207,-0.850514 0.120996,-0.211749 0.281813,-0.398126 0.425256,-0.595363 0.166749,-0.22928 0.309841,-0.479943 0.51031,-0.68041 0.27155,-0.27155 0.974413,-0.547685 1.190721,-0.850517 0.08874,-0.124235 0.101827,-0.288702 0.170103,-0.425256 0.195847,-0.391695 0.625615,-1.026327 0.765463,-1.445877 0.122748,-0.368242 -0.162592,0.03126 0.08505,-0.340206 0.511826,-0.767742 1.597634,-0.987597 2.041237,-1.786083 0.08708,-0.15674 0.09496,-0.347509 0.170103,-0.51031 0.338722,-0.733896 0.896027,-1.335998 1.275773,-2.041237 0.396875,-0.737055 0.701453,-1.445342 1.02062,-2.21134 0.357005,-0.856813 0.913908,-1.653918 1.360823,-2.466496 0.631722,-1.148582 1.118254,-1.97808 1.275773,-3.317009 0.08297,-0.705247 -0.05575,-1.35512 -0.170103,-2.041237 -0.07053,-0.423183 -0.07704,-0.856967 -0.170103,-1.275773 -0.07779,-0.35007 -0.240493,-0.676151 -0.340207,-1.02062 C 96.49135,56.251278 96.33274,55.502799 96.108246,54.773194 95.89454,54.07865 95.580487,53.418663 95.342783,52.731958 95.196151,52.308357 95.036731,51.888305 94.917523,51.456185 94.72021,50.740923 94.696967,49.993007 94.322163,49.329898 94.112912,48.959682 93.792592,48.663113 93.5567,48.309278 93.246534,47.844029 93.016349,47.32865 92.706184,46.863402 91.683736,45.329728 90.83505,43.729925 90.83505,41.845359 c 0,-0.750189 -0.212913,-1.403067 0.340207,-1.956184 0.318021,-0.318023 1.540026,-0.369567 2.041236,-0.425259 0.140886,-0.01566 0.293646,0.05265 0.425257,0 0.399383,-0.159753 0.587206,-0.170103 1.02062,-0.170103 1.565531,0 2.217518,0.532799 2.891753,1.956186 0.100078,0.21128 0.09229,0.459957 0.170103,0.680413 0.324025,0.918067 0.702273,1.834176 1.10567,2.72165 0.527317,1.1601 -0.06454,-0.197988 0.680413,1.10567 0.107122,0.187462 0.141997,0.411477 0.255154,0.59536 0.116048,0.188579 0.306377,0.323503 0.425257,0.51031 0.31378,0.493088 0.46083,1.074335 0.68041,1.615979 0.5026,1.009177 0.78063,2.103025 1.19073,3.146907 0.22735,0.578718 0.56884,1.111162 0.76546,1.70103 0.12367,0.371007 -0.15726,0.146852 0.085,0.51031 0.0157,0.0236 0.0567,0 0.0851,0 0.22681,0 0.45569,0.03064 0.68042,0 1.2543,-0.17104 2.46077,-0.509495 3.23195,-1.61598 0.37705,-0.540983 0.53197,-1.208712 0.85052,-1.78608 0.13695,-0.248233 0.37368,-0.432002 0.51031,-0.680414 0.41517,-0.754864 0.68051,-1.672915 1.02062,-2.466496 0.42659,-0.995394 1.2055,-2.035939 1.87113,-2.891752 0.34549,-0.444202 0.68041,-0.907217 1.10567,-1.275774 0.26152,-0.226644 0.58193,-0.377134 0.85051,-0.59536 0.18671,-0.151696 0.31015,-0.37687 0.51031,-0.51031 0.23233,-0.154881 0.53314,-0.185322 0.76547,-0.340204 0.20016,-0.133439 0.32852,-0.352758 0.51031,-0.510309 0.24427,-0.211704 0.53689,-0.366792 0.76546,-0.595363 0.59047,-0.590463 0.96662,-1.37028 1.44588,-2.041237 0.39327,-0.550582 0.84843,-1.034079 1.19072,-1.615979 0.46539,-0.791163 0.91771,-1.626921 1.44588,-2.381443 0.069,-0.09854 0.18843,-0.155075 0.25515,-0.255154 0.29583,-0.443738 0.465,-0.890254 0.85052,-1.275773 0.0633,-0.06336 0.29214,-0.122047 0.3402,-0.170104 0.17598,-0.175974 -0.26891,0.0069 0.0851,-0.170103 0.10142,-0.05071 0.34862,-0.09346 0.42526,-0.170103 0.10796,-0.107955 0.10183,-0.288703 0.1701,-0.425257 z"
       id="path16038"
       inkscape:export-filename="C:\Users\wenze\Desktop\campfire.png"
       inkscape:export-xdpi="32.512001"
       inkscape:export-ydpi="32.512001" />
    <path
       style="fill:#784421;fill-opacity:1;stroke:none;stroke-width:0.288191px;stroke-linecap:butt;stroke-linejoin:miter;stroke-opacity:1"
       d="m 128.51862,39.40509 c -0.46573,-0.04212 -0.68524,0.187782 -1.09654,0.469603 -0.5949,0.407649 -0.63084,0.306107 -0.91377,1.033127 -0.0724,0.18596 -0.319,0.3723 -0.36551,0.563525 -0.0765,0.314637 -0.0913,0.971742 -0.0913,1.314892 0,0.312115 -0.0457,0.563601 0.0913,0.845285 0.0645,0.132584 0.17988,0.139402 0.27414,0.187843 0.38028,0.195438 -0.0977,-0.0065 0.0914,0.187841 0.23081,0.237234 0.10529,0.03609 0.27412,0.09392 0.4872,0.16692 0.94796,0.316972 1.46205,0.375684 0.60175,0.06872 1.2258,-0.06872 1.82756,0 0.82276,0.09396 1.65439,0.396437 2.4672,0.563525 0.95509,0.196333 2.01846,0.253248 2.92409,0.563524 0.24422,0.08367 0.96023,-0.942337 1.00516,-1.127049 0.0359,-0.147326 -0.0359,-0.322277 0,-0.469603 0.18738,-0.770411 9.7e-4,0.741392 0.18275,-0.563525 0.0129,-0.09298 -0.0251,-0.191456 0,-0.28176 0.0374,-0.134623 0.14533,-0.241063 0.18276,-0.375684 0.0198,-0.07101 0.18414,-0.749938 0.0914,-0.845286 -0.36077,-0.370816 -1.72906,-0.890419 -2.28444,-1.033131 -0.25908,-0.06657 -0.56152,0.05959 -0.82241,0 -0.34072,-0.07782 -0.57435,-0.238151 -0.91377,-0.281761 -0.1209,-0.01555 -0.24658,0.02718 -0.36552,0 -1.38082,-0.31539 0.32037,-0.086 -0.8224,-0.281761 -0.79894,-0.136866 -2.57606,-0.459605 -3.19822,-0.939208 z"
       id="path16044"
       inkscape:export-filename="C:\Users\wenze\Desktop\campfire.png"
       inkscape:export-xdpi="32.512001"
       inkscape:export-ydpi="32.512001" />
    <path
       style="fill:#a55d2d;fill-opacity:1;stroke:none;stroke-width:0.264583px;stroke-linecap:butt;stroke-linejoin:miter;stroke-opacity:1"
       d="m 79.722678,97.731375 c -0.407427,0.472747 -0.935861,0.856083 -1.202812,1.443374 -0.188169,0.413972 -0.325765,0.986201 -0.481124,1.383231 -0.150598,0.38486 -0.304207,0.76918 -0.481123,1.14267 -0.280112,0.59135 -0.632804,1.11659 -0.841968,1.74407 -0.148899,0.4467 -0.157162,0.92453 -0.240562,1.38324 -0.09383,0.51604 -0.04551,-0.26655 -0.120282,0.48112 -0.04763,0.47636 0.04764,0.96701 0,1.44337 -0.02989,0.29894 -0.06899,0.16455 -0.120279,0.42099 -0.04223,0.21112 -0.10677,1.07076 0,1.26295 0.427661,0.76979 0.746431,0.51941 1.44337,0.6014 0.404609,0.0476 1.287381,0.43289 1.683936,0.3007 0.388001,-0.12933 0.41444,-0.50376 0.541263,-0.84196 0.305089,-0.81357 0.474573,-1.79439 0.96225,-2.5259 0.932635,-1.39896 -0.0487,0.30001 0.781825,-0.84197 0.0635,-0.0873 0.05678,-0.2134 0.120282,-0.3007 0.738349,-1.01523 0.0781,0.11907 0.541267,-0.60141 0.120279,-0.20047 0.240561,-0.40093 0.360841,-0.6014 0.120282,-0.14033 0.260117,-0.26602 0.360844,-0.42099 0.161308,-0.24817 0.260189,-0.53332 0.420984,-0.78182 0.06161,-0.0952 0.184965,-0.14173 0.240562,-0.24057 0.329308,-0.58543 0.494479,-1.28521 0.841967,-1.86435 0.08055,-0.13426 0.226473,-0.22299 0.300702,-0.36085 0.150275,-0.279076 0.175842,-0.610763 0.300704,-0.902104 0.540512,-1.2612 -0.203848,0.629902 0.360841,-0.781827 0.179825,-0.449559 0.282136,-1.036167 0.541267,-1.443371 0.08406,-0.132094 0.22181,-0.225603 0.300701,-0.360844 0.06388,-0.109517 0.0564,-0.251328 0.120282,-0.360844 0.07889,-0.135242 0.213852,-0.230566 0.300702,-0.360842 0.697219,-1.045832 -0.03179,-0.05354 0.481124,-1.022389 0.101457,-0.191641 0.258802,-0.349936 0.360844,-0.541264 0.05966,-0.111871 0.06358,-0.247441 0.120279,-0.360844 0.16927,-0.338534 0.408242,-0.69125 0.601406,-1.02239 0.216276,-0.370755 0.476946,-0.789154 0.721688,-1.142669 0.307652,-0.444386 0.292881,-0.255968 0.541264,-0.721685 0.345273,-0.647385 0.122846,-0.454901 0.541266,-1.08253 0.357296,-0.535948 0.188822,-0.190505 0.481123,-0.541266 0.07483,-0.0898 0.103447,-0.212733 0.180422,-0.300701 0.112014,-0.128016 0.25014,-0.231693 0.360842,-0.360844 0.130463,-0.152207 0.224435,-0.334222 0.360844,-0.481124 0.125761,-0.135438 0.294576,-0.22601 0.420983,-0.360844 0.385049,-0.410718 0.499902,-0.667163 0.841968,-1.08253 0.297442,-0.36118 0.680665,-0.707083 0.962247,-1.082529 0.450943,-0.601255 -0.253082,0.134194 0.300705,-0.481124 0.349702,-0.388561 0.738182,-0.811725 1.142669,-1.142669 0.111882,-0.09154 0.262207,-0.134882 0.360844,-0.240562 1.348137,-1.444437 -0.08471,-0.08159 0.721685,-1.022389 0.147603,-0.172204 0.345041,-0.299681 0.481124,-0.481124 0.04959,-0.06612 0.01633,-0.170471 0.06014,-0.240562 0.0601,-0.09616 0.176014,-0.147325 0.240562,-0.240564 0.117483,-0.169696 0.191314,-0.366242 0.300704,-0.541264 0.302569,-0.48411 0.668869,-0.941334 1.022389,-1.383231 0.028,-0.035 0.02612,-0.09111 0.06014,-0.120282 0.130932,-0.112228 0.392634,-0.130598 0.420984,-0.300702 0.01648,-0.09887 -0.04624,-0.211775 0,-0.300704 0.220615,-0.424259 0.520605,-0.802272 0.781825,-1.202809 0.03949,-0.06054 0.102751,-0.110299 0.120283,-0.180422 0.11291,-0.451644 -0.188664,-0.359865 -0.360844,-0.841968 -0.03438,-0.09626 0.03206,-0.202416 0.06014,-0.300701 0.275603,-0.964618 0.735292,-1.703483 1.383232,-2.465763 0.22223,-0.26144 0.53108,-0.644123 0.84197,-0.841968 0.18216,-0.115917 0.41831,-0.12613 0.60141,-0.240562 0.0721,-0.04508 0.11238,-0.129389 0.18042,-0.180422 0.29998,-0.224986 0.25566,-0.129341 0.54126,-0.300701 0.92746,-0.556477 1.80854,-1.239153 2.64619,-1.924498 0.27282,-0.223223 0.52887,-0.421761 0.72168,-0.721685 0.097,-0.150828 0.1275,-0.341963 0.24057,-0.481124 0.15222,-0.187351 0.37057,-0.310433 0.54126,-0.481126 0.28654,-0.286538 0.46947,-0.70712 0.72168,-1.022387 0.18418,-0.312108 0.49464,-0.509365 0.72169,-0.781828 0.32847,-0.39416 0.59528,-0.853847 0.90211,-1.262951 0.051,-0.06804 0.13534,-0.108297 0.18042,-0.180422 0.4994,-0.799045 -0.33805,0.261096 0.3007,-0.661546 0.0728,-0.105164 0.81944,-0.934717 0.84197,-0.962247 1.0556,-1.372275 0.17473,-0.261173 1.02239,-1.262952 0.21327,-0.252039 0.27472,-0.541017 0.48112,-0.781825 0.14761,-0.172204 0.35106,-0.29532 0.48113,-0.481126 0.0771,-0.110167 0.11123,-0.245528 0.18042,-0.360841 0.18364,-0.30606 0.46703,-0.542709 0.66155,-0.841968 0.12214,-0.18792 0.1884,-0.407437 0.3007,-0.601406 0.10864,-0.187658 0.2522,-0.353605 0.36084,-0.541266 0.35273,-0.609248 0.56275,-1.282293 0.84197,-1.924495 0.48558,-1.116827 0.91584,-2.256451 1.62379,-3.247588 0.45645,-0.639019 1.14938,-0.956805 1.74408,-1.443373 0.10971,-0.08976 0.19475,-0.206529 0.3007,-0.300702 0.30916,-0.274809 0.66721,-0.486791 0.96225,-0.781828 0.22947,-0.229476 0.20575,-0.351353 0.36084,-0.661546 0.24349,-0.486968 0.60092,-1.092147 1.02239,-1.443373 0.12416,-0.103468 0.28858,-0.147876 0.42099,-0.240562 0.42143,-0.295002 0.69714,-0.698148 1.02238,-1.082529 0.34856,-0.411927 0.33235,-0.257958 0.60141,-0.661546 0.0643,-0.09639 0.91134,-1.759797 1.02239,-1.804215 0.58661,-0.234646 1.24677,-0.382823 1.80421,-0.661545 0.0507,-0.02535 0.0696,-0.09492 0.12029,-0.120283 0.0538,-0.0269 0.12336,0.01902 0.18041,0 0.21443,-0.07147 0.45862,-0.07895 0.66155,-0.180422 0.16309,-0.08154 0.94031,0 1.14267,0 h 1.38323 c 0.22495,0 0.50172,-0.04399 0.72169,0 0.109,0.0218 0.25185,0.09848 0.36084,0.120283 0.059,0.0118 0.12337,-0.01902 0.18043,0 0.0686,0.02286 0.11331,0.09344 0.18042,0.120282 0.19934,0.07973 0.56978,0.08173 0.78182,0.120279 0.68986,0.125429 1.38224,0.260276 2.04478,0.481124 0.10313,0.03438 0.2646,-0.04812 0.36085,0 0.0507,0.02535 0.0731,0.08883 0.12028,0.120282 0.0164,0.01093 1.2976,0.14577 1.32309,0.12028 0.0429,-0.04293 -0.0203,-0.239774 0,-0.300702 0.0656,-0.196908 0.0705,-0.402135 0.12028,-0.601406 0.0316,-0.126367 0.16792,-0.157765 0.12028,-0.300701 -0.0388,-0.116499 -0.21432,-0.09149 -0.3007,-0.120283 -0.11934,-0.03978 -0.17719,-0.155717 -0.3007,-0.180422 -0.56514,-0.113027 -1.18303,-0.160438 -1.74408,-0.300701 -0.16279,0.102214 -0.15551,-0.09193 -0.24056,-0.12028 -0.18288,-0.06096 -0.4199,-0.0083 -0.60141,-0.06014 -0.1038,-0.02966 -0.1973,-0.08926 -0.3007,-0.12028 -0.20313,-0.06094 -0.35692,-0.01405 -0.54127,-0.06014 -0.10885,0.03625 -0.11185,-0.09742 -0.18042,-0.12028 -0.0951,-0.0317 -0.20241,0.01966 -0.3007,0 -0.41207,-0.08242 -0.8707,-0.143803 -1.26295,-0.300704 -0.10591,-0.04236 -0.25051,-0.005 -0.36084,-0.06014 -0.19937,-0.09968 -0.32552,-0.2144 -0.54127,-0.300701 -0.052,-0.0208 -0.12717,0.01775 -0.18042,0 -0.34445,-0.114819 -0.72511,-0.282935 -1.02239,-0.481124 -0.0413,-0.02753 -0.20173,0.01294 -0.24056,0 -0.0828,-0.02759 -0.29354,-0.173254 -0.36085,-0.240564 -0.23471,-0.234712 0.0139,-0.0323 -0.0601,-0.18042 -0.0361,-0.07217 -0.14433,-0.108254 -0.18042,-0.180422 -0.0684,-0.136752 -0.0601,-0.603835 -0.0601,-0.781828 0,-0.205044 -0.0399,-0.462105 0,-0.661545 0.015,-0.07501 0.16018,-0.260218 0.18043,-0.300702 0.15897,-0.317958 0.28485,-0.708364 0.48112,-1.02239 0.03,-0.04808 0.0949,-0.06957 0.12028,-0.120279 0.037,-0.07393 0.0163,-0.170471 0.0601,-0.240565 0.55938,-0.895006 -0.0984,0.55775 0.48112,-0.601403 0.15425,-0.308493 0.26122,-0.823129 0.42099,-1.142672 0.19298,-0.385969 0.32815,-0.759608 0.18042,-1.202809 -0.0833,-0.249999 -0.86953,-0.810823 -1.08253,-0.902107 -0.20345,-0.0872 -0.47396,-0.06787 -0.66154,-0.180422 -0.12966,-0.07779 -0.11682,-0.139171 -0.24057,-0.180422 -0.24056,-0.08019 -0.02,-0.02006 -0.18042,-0.180422 -0.0197,-0.01974 -0.19568,-0.09784 -0.24056,-0.12028 -0.18691,-0.09346 -1.18661,0.01098 -1.38323,0.06014 -0.37746,0.09436 -1.083,0.704903 -1.38324,0.962247 -0.62575,0.536358 0.18554,-0.204446 -0.54126,0.360844 -0.40679,0.316392 -1.32156,1.319514 -1.50351,1.744075 -0.20901,0.487678 -0.337,0.878801 -0.48113,1.383231 -0.0198,0.0695 -0.1061,0.109546 -0.12028,0.180422 -0.0157,0.07863 0.0114,0.161182 0,0.240562 -0.0326,0.228354 -0.19678,0.442656 -0.24056,0.661546 -0.0118,0.05897 0.0173,0.122819 0,0.180422 -0.0877,0.292468 -0.25815,0.554413 -0.36084,0.841967 -0.1738,0.486619 -0.3677,0.975961 -0.60141,1.443374 -0.3079,0.615799 -0.78158,1.040498 -1.14267,1.623793 -0.11797,0.190571 -0.17894,0.413231 -0.3007,0.601406 -0.10041,0.155173 -0.26575,0.262498 -0.36084,0.420984 -0.0881,0.14687 -0.0954,0.332411 -0.18043,0.481123 -0.4391,0.768435 -0.14684,-0.02029 -0.6014,0.661546 -0.0847,0.127032 -0.1035,0.28911 -0.18042,0.420984 -0.15341,0.262985 -0.47621,0.507836 -0.66155,0.721685 -0.13129,0.151493 -0.22955,0.329634 -0.36084,0.481126 -0.71602,0.826175 -0.10147,0.08561 -0.84197,0.661546 -0.057,0.04438 -0.0802,0.12028 -0.12028,0.180422 -0.10024,0.06014 -0.20719,0.110286 -0.3007,0.180419 -0.22339,0.167542 -0.19121,0.238795 -0.36085,0.481127 -0.67222,0.960321 0.16898,-0.294574 -0.48112,0.541263 -0.0718,0.09227 -0.10435,0.211952 -0.18042,0.300704 -0.11223,0.130932 -0.29905,0.178761 -0.42099,0.300702 -0.22726,0.227264 -0.38859,0.538617 -0.6014,0.781828 -0.3941,0.450403 -0.83182,0.925282 -1.14267,1.443371 -0.25198,0.419967 -0.31133,0.896067 -0.54126,1.323091 -0.0685,0.12728 -0.16619,0.236884 -0.24057,0.360844 -0.22401,0.373359 -0.0254,0.128082 -0.24056,0.601406 -0.0967,0.212828 -0.23116,0.406884 -0.36084,0.601403 -0.12542,0.188124 -0.32925,0.399582 -0.42099,0.601406 -0.0423,0.09306 -0.0222,0.205795 -0.0601,0.300704 -0.15892,0.397304 -0.41665,0.755997 -0.66154,1.082529 -0.18949,0.252643 -0.7486,1.396688 -0.96225,1.503514 -0.0567,0.02835 -0.12372,0.03179 -0.18042,0.06014 -0.0253,0.01267 -0.0401,0.04009 -0.0601,0.06014 -0.0401,0.0401 -0.0696,0.09492 -0.12029,0.120283 -0.0373,0.01863 -1.0356,0.06014 -1.08253,0.06014 -0.11823,0 -0.92904,0.056 -1.02238,0 -0.52484,-0.314901 -0.86298,-0.813347 -1.20281,-1.323091 -0.0786,-0.117946 -0.21831,-0.185354 -0.30071,-0.300704 -0.0521,-0.07295 -0.0665,-0.168839 -0.12028,-0.240562 -0.25092,-0.334566 -0.62487,-0.600429 -0.84197,-0.962247 -0.0326,-0.05436 -0.0221,-0.129707 -0.0601,-0.180422 -0.0601,-0.08019 -0.17639,-0.103421 -0.24056,-0.180422 -0.0601,-0.08019 -0.12028,-0.160375 -0.18042,-0.240562 0,-0.02005 0.0111,-0.04346 0,-0.06014 -0.11466,-0.172 -0.29113,-0.318815 -0.42098,-0.481123 -0.15193,-0.189908 -0.27163,-0.409377 -0.42099,-0.601406 -0.24688,-0.317418 -0.5595,-0.628761 -0.78182,-0.96225 -0.22895,-0.343421 -0.38291,-0.73293 -0.60141,-1.08253 -0.0531,-0.085 -0.1356,-0.150907 -0.18043,-0.240561 -0.037,-0.07393 -0.0294,-0.163817 -0.0601,-0.240562 -0.15584,-0.389605 -0.32972,-0.799066 -0.481121,-1.202809 -0.130334,-0.34756 -0.200242,-0.701194 -0.360841,-1.02239 -0.009,-0.01794 0,-0.0401 0,-0.06014 -0.04009,-0.100235 -0.0604,-0.210878 -0.120282,-0.300704 -0.06291,-0.09436 -0.174649,-0.148283 -0.240562,-0.240562 -0.09955,-0.139377 -0.08964,-0.335878 -0.180422,-0.481123 -0.04508,-0.07212 -0.125971,-0.115084 -0.18042,-0.180422 -0.193654,-0.232384 -0.261061,-0.541941 -0.420984,-0.781826 -0.01111,-0.0167 -0.04902,0.01667 -0.06014,0 -0.0376,-0.05641 -0.149495,-0.283527 -0.180422,-0.360844 -0.173881,-0.434707 -0.709189,-2.004748 -0.932177,-2.450727 -0.197763,-0.395529 -0.588347,-2.955391 -1.007355,-3.164896 -0.05379,-0.02689 -0.730371,-2.814805 -0.789344,-2.826605 -0.258667,-0.05173 -3.711511,0.246296 -3.562508,0.834014 0.127488,0.502859 3.124234,6.686557 3.3445,7.127091 0.1803,0.3606 0.286358,0.736277 0.481124,1.082529 0.238127,0.423336 0.486206,0.839084 0.721685,1.262949 0.05677,0.102182 0.120282,0.200469 0.180422,0.300704 0.08019,0.100235 0.174522,0.190632 0.240562,0.300702 0.657892,1.315783 -0.04506,-0.01196 0.601406,1.022389 0.847534,1.356054 -0.288412,-0.354369 0.601405,1.202812 0.0422,0.07384 0.142386,0.104349 0.180422,0.18042 0.04571,0.09143 0.02782,0.203729 0.06014,0.300704 0.159983,0.479946 0.357603,0.94929 0.481124,1.443371 0.13753,0.550124 -0.01455,0.167124 0.120282,0.661545 0.109006,0.399688 0.318548,0.763326 0.481124,1.142672 0.178242,0.415896 0.313647,0.844262 0.481123,1.262952 0.299739,0.749339 0.685509,1.505574 0.902109,2.285338 0.0547,0.19698 0.0683,0.403699 0.12028,0.601406 0.17564,0.667425 0.47246,1.296569 0.54127,1.984637 0.0975,0.975148 -0.34145,1.730502 -0.72169,2.586043 -0.13471,0.30309 -0.2256,0.789456 -0.42099,1.082529 -0.321048,0.481579 0.14337,-0.438481 -0.300696,0.360844 -0.291577,0.524833 0.07373,0.08296 -0.300705,0.601403 -0.192503,0.266547 -0.421473,0.506638 -0.601403,0.781828 -0.16198,0.247732 -0.265858,0.529746 -0.420984,0.781828 -0.166124,0.269947 -0.37238,0.513596 -0.541266,0.781825 -0.46568,0.739611 -0.820396,1.536401 -1.262951,2.285342 -0.101984,0.172587 -0.251936,0.312816 -0.360842,0.481123 -0.214794,0.331954 -0.416409,0.672952 -0.601405,1.02239 -0.09238,0.174493 -0.14164,0.370395 -0.240562,0.541263 -0.122606,0.211773 -0.303808,0.386583 -0.420984,0.601406 -0.124793,0.228788 -0.184155,0.48859 -0.300704,0.721685 -0.144558,0.289121 -0.327872,0.557361 -0.481124,0.841968 -0.246938,0.4586 -0.472239,1.019725 -0.781825,1.443374 -0.218099,0.298447 -0.488193,0.555405 -0.721688,0.841967 -0.207688,0.254892 -0.38743,0.532189 -0.601403,0.781826 -0.147604,0.172204 -0.340588,0.303109 -0.481127,0.481123 -0.161962,0.205153 -0.264154,0.452443 -0.420984,0.661546 -0.341902,0.455872 -0.726553,0.878123 -1.082529,1.323094 -0.195617,0.244522 -0.42532,0.46274 -0.601403,0.721685 -0.166439,0.244761 -0.2687,0.528019 -0.420984,0.781828 -0.456128,0.760211 -1.102434,1.407337 -1.563656,2.165059 -0.139843,0.22974 -0.233331,0.484875 -0.360841,0.721685 -0.205412,0.381479 -0.844415,1.448269 -1.02239,1.804215 -0.170103,0.340207 -0.183689,0.74594 -0.360844,1.08253 -0.106455,0.202266 -0.306461,0.343455 -0.420981,0.541266 -0.10818,0.186854 -0.147735,0.406466 -0.240565,0.601403 -0.328062,0.688935 -0.738457,1.39804 -1.142669,2.044779 -0.441142,0.705829 -0.889876,1.358771 -1.262951,2.104919 -0.0883,0.176594 -0.143764,0.369182 -0.240562,0.541264 -0.419582,0.745924 -1.033341,1.399662 -1.503513,2.104919 -0.44881,0.673214 -0.537835,1.337268 -1.443371,1.563653 z"
       id="path24592"
       sodipodi:nodetypes="csssssssssssssscccssssssssssssssssssssssssssscsssssscsssssssssssscsscsssscsssssssssssssssscssssssssssssssssscssscssscssscssssscsssccscsscssscssssscccscssssscssssccsccsssscscsscsssccsscscsscccsssssssccssssscssscssssccssscssssscssssssssssssssssssssssssssssssssscc"
       inkscape:export-filename="C:\Users\wenze\Desktop\campfire.png"
       inkscape:export-xdpi="32.512001"
       inkscape:export-ydpi="32.512001" />
    <path
       style="fill:#ffdd55;fill-opacity:1;stroke:none;stroke-width:0.264583px;stroke-linecap:butt;stroke-linejoin:miter;stroke-opacity:1"
       d="m 100.87113,48.479381 c 0.50118,-0.380892 0.99561,-0.770811 1.50352,-1.14267 0.61486,-0.45017 1.20136,-0.947396 1.86435,-1.323094 0.34979,-0.198212 2.17855,-0.871323 2.76647,-1.142669 0.1874,-0.08649 0.36548,-0.192532 0.54126,-0.300701 0.18001,-0.110774 0.37488,-0.272627 0.36085,-0.240562 -0.44093,1.007821 -1.2356,1.968936 -1.44338,3.067166 -0.22316,1.179568 -0.0467,1.102884 0.12029,2.104919 0.0331,0.198726 0.0224,0.403495 0.0601,0.601403 0.0428,0.224534 0.14284,0.436087 0.18042,0.661546 0.0419,0.251182 -0.0894,0.709411 0.18042,0.90211 1.00957,0.721122 3.09667,-0.08624 4.08955,0.481124 0.0389,0.02225 0.046,0.07776 0.0601,0.120279 0.0862,0.258676 0.12833,0.533329 0.24056,0.781828 0.1699,0.376203 0.36705,0.742715 0.6014,1.08253 1.3627,1.975916 3.20775,1.35265 5.05181,0.541263 0.30373,-0.133641 0.5914,-0.304467 0.9021,-0.420984 1.49955,-0.562329 0.54656,-0.01688 1.98464,-0.661545 1.10114,-0.493612 0.40346,-0.338651 1.32309,-0.601404 0.0983,-0.02808 0.20675,-0.01987 0.30071,-0.06014 0.35566,-0.152426 -0.14656,-0.116525 0.3007,-0.180422 0.0794,-0.01135 0.16346,0.02204 0.24056,0 0.0637,-0.0182 0.18433,-0.217593 0.24056,-0.06014 0.30062,0.84174 0.1966,0.640398 0.36085,1.443374 0.24178,1.182073 0.47989,2.366216 0.72168,3.54829 0.14423,0.705135 0.34733,1.39773 0.48112,2.104919 0.16963,0.896591 0.25398,1.795026 0.30071,2.706322 0.0144,0.280289 0.0474,0.565349 0,0.841968 -0.16387,0.955871 -0.98828,2.868925 -1.20281,3.548292 -0.35713,1.13092 -0.19837,0.989831 -0.24056,2.044777 -0.0259,0.648303 -0.12141,0.868868 -0.30071,1.563653 -0.15775,0.611291 -0.81584,2.285177 -0.72168,2.826605 0.37174,2.137526 3.041,3.06139 4.20983,4.931524 0.7981,1.27695 0.8158,2.169313 0.84197,3.608432 0.009,0.501489 0.017,1.007901 -0.0601,1.503513 -0.12189,0.783559 -0.46227,1.378546 -0.72169,2.104917 -0.22379,0.626626 -0.39557,1.277355 -0.72168,1.864357 -0.0989,0.17794 -0.26979,0.451898 -0.54127,0.180422 -0.54711,-0.547116 -1.63684,-2.365055 -1.98463,-2.886747 -0.19132,-0.286972 -0.39948,-0.562364 -0.60141,-0.841965 -0.0587,-0.08126 -0.0824,-0.219562 -0.18042,-0.240564 -0.35769,-0.07665 -1.15848,0.193865 -1.44337,0.300704 -0.59756,0.224083 -2.39716,1.011378 -3.06717,1.202809 -1.22354,0.349583 -2.19915,0.374949 -3.48815,0.420984 -0.62106,0.02217 -1.25013,-0.0945 -1.86436,0 -0.1067,0.0164 -0.22436,0.04394 -0.3007,0.120282 -0.0584,0.05845 -0.0358,0.161563 -0.0601,0.240562 -0.54821,1.781685 0.36712,-1.558253 -0.3007,1.864357 -0.0525,0.268912 -0.47878,1.471941 -0.60141,1.864355 -0.0247,0.07889 -0.0163,0.170471 -0.0601,0.240562 -0.33929,0.542869 -1.27186,0.394366 -1.80421,0.420983 -0.73121,0.03656 -1.02121,0.10916 -1.80422,0.360844 -0.14302,0.04597 -0.72226,0.277628 -0.84197,0.481124 -0.41829,0.711097 -0.4979,1.73228 -0.78182,2.465761 -0.0783,0.202218 -0.25985,0.349379 -0.36085,0.541266 -0.89811,1.706409 0.49823,-0.514149 -0.66154,1.142669 -0.11582,0.165454 -0.40059,0.795076 -0.72169,0.902107 -0.13313,0.04438 -0.28079,0.0061 -0.42098,0 -0.32107,-0.01397 -0.65193,0.02342 -0.96225,-0.06014 -0.22575,-0.06078 -0.4045,-0.234821 -0.60141,-0.360844 -0.30439,-0.194813 -0.60289,-0.398714 -0.9021,-0.601404 -1.14318,-0.774406 -1.80216,-1.095655 -2.04478,-2.586042 -0.15479,-0.950863 0.19757,-1.970651 -0.24056,-2.886747 -0.83808,-1.752341 -2.377643,-1.716927 -3.428015,-3.187446 -0.100235,-0.14033 -0.223581,-0.26674 -0.300702,-0.420984 -0.04571,-0.09143 -0.03206,-0.202417 -0.06014,-0.300704 -0.148568,-0.519981 -0.522501,-1.617594 -1.262951,-1.443371 -0.76758,0.180607 -2.076244,1.025498 -2.646183,1.503513 -0.293449,0.246115 -0.525618,0.557289 -0.781827,0.841968 -0.285115,0.316791 -0.570527,0.633661 -0.841968,0.962247 -0.109829,0.132953 -0.233508,0.262162 -0.300702,0.420984 -0.508468,1.20183 -0.282387,0.847981 -0.420983,1.864357 -0.07756,0.568788 -0.244539,1.121786 -0.360845,1.683933 -0.119522,0.577702 -0.16805,1.169246 -0.300701,1.744075 -0.131421,0.569494 -0.400169,1.101037 -0.661546,1.623795 -0.634785,1.269569 -1.518975,1.507885 -2.646185,2.225199 -0.443092,0.281969 -0.198723,0.275209 -0.541263,0.360844 -0.01945,0.0049 -0.05731,0.01984 -0.06014,0 -0.123555,-0.864878 1.233974,-2.460966 1.623793,-3.187448 0.319593,-0.595607 0.6804,-1.837489 0.902107,-2.405621 0.143555,-0.367858 0.320749,-0.721686 0.481126,-1.08253 0.160375,-0.481123 0.299742,-0.969766 0.481124,-1.443373 1.236342,-3.228226 -0.05479,0.539395 1.262952,-2.886745 0.239992,-0.623985 0.275481,-1.029507 0.360841,-1.683935 0.0445,-0.341169 0.253479,-1.111935 0.06014,-1.443371 -0.222758,-0.38187 -3.049299,-1.475049 -3.30773,-1.563655 -1.479119,-0.507125 -2.868751,-0.744416 -4.390258,-1.08253 -0.522179,-0.116038 -1.034113,-0.285194 -1.563653,-0.360841 -0.317527,-0.04536 -0.641498,0 -0.96225,0 -0.781825,0 -1.563653,0 -2.345478,0 -0.96225,0 -1.92845,0.08712 -2.886747,0 -0.125233,-0.01138 -0.730176,-0.186529 -0.781826,-0.360844 -0.131482,-0.443749 -0.05911,-0.924476 -0.120282,-1.383231 -0.09931,-0.744832 -0.176313,-1.496788 -0.360844,-2.225202 -0.197718,-0.780468 -0.542245,-1.516687 -0.781825,-2.285338 -0.414137,-1.328688 -1.031965,-2.799078 -0.541266,-4.209836 0.05666,-0.16288 0.182102,-0.295794 0.300704,-0.420984 0.243919,-0.257471 0.483489,-0.529899 0.781825,-0.721688 1.159979,-0.745699 2.783801,-0.481123 4.089556,-0.481123 0.300705,0 0.622914,0.111678 0.902108,0 1.375042,-0.550016 0.280974,-0.929574 2.706325,-0.721686 0.779994,0.06686 1.534858,0.318466 2.285338,0.541264 0.535348,0.158932 1.039646,0.40835 1.563656,0.601405 0.06295,0.0232 0.993481,0.459526 1.202809,0.180422 0.156827,-0.209102 0.297064,-0.431411 0.420984,-0.661545 0.157324,-0.292172 0.359831,-0.575958 0.420984,-0.902108 0.259522,-1.384112 -0.98185,-3.338126 -1.563653,-4.4504 -1.855269,-3.546837 -0.405837,-0.536567 -1.804218,-3.909134 -0.08584,-0.207039 -0.246343,-0.383966 -0.300701,-0.601406 -0.04862,-0.194482 0.01664,-0.401629 0,-0.601403 -0.02355,-0.282527 -0.05535,-0.565999 -0.12028,-0.841968 -0.175982,-0.747921 -0.433684,-1.475382 -0.601406,-2.225201 -0.378494,-1.69209 -0.614333,-3.413299 -0.96225,-5.111943 -0.15227,-0.743439 -0.360286,-1.47601 -0.481123,-2.225199 -0.08006,-0.496358 -0.133168,-1.000908 -0.12028,-1.503513 0.0074,-0.286933 0.13054,-0.559308 0.180419,-0.841968 0.01437,-0.0814 -0.01378,-0.277526 0.06014,-0.240561 0.04009,0.02006 0.03389,0.08394 0.06014,0.120279 0.234743,0.325033 0.506433,0.623993 0.721685,0.96225 0.487302,0.765757 0.927698,1.560409 1.383234,2.345478 0.486688,0.838764 0.956159,1.687444 1.443371,2.525903 0.858535,1.477481 1.122296,1.633916 1.563653,3.007027 0.250327,0.778793 0.169799,1.972479 0.481126,2.706322 0.15853,0.373682 0.416428,0.698836 0.661546,1.02239 1.362315,1.798259 3.560191,2.82154 5.593069,3.668572 0.470662,0.196109 1.534673,0.615305 1.744075,-0.180422 0.06122,-0.23264 0.02228,-0.482158 0,-0.721685 -0.05804,-0.623912 -0.151948,-1.24405 -0.240564,-1.864358 -0.251556,-1.7609 -0.702035,-3.493502 -0.481124,-5.292365 0.134011,-1.091237 0.995672,-1.730764 1.202812,-2.766465 0.270899,-1.354502 0.288295,-2.909734 0.360841,-4.269978 0.0385,-0.721772 0.1314,-1.442344 0.120282,-2.165059 -0.0155,-1.007221 -0.237865,-2.001644 -0.300701,-3.007023 -0.01193,-0.190821 -0.09555,-0.969278 0.06014,-1.202812 0.01111,-0.01667 0.04249,-0.0095 0.06014,0 0.245211,0.132037 0.544642,0.206002 0.721688,0.420984 0.399963,0.485671 0.654582,1.074986 0.962248,1.623793 0.434218,0.774554 0.81389,1.579435 1.262959,2.34548 2.00021,3.412131 -0.0908,-0.285112 1.26295,1.683936 0.0865,0.125809 0.10187,0.290068 0.18042,0.420984 0.3611,0.601842 -2e-5,-0.300742 0.36084,0.420983 0.32582,0.651643 0.55922,1.373243 0.84197,2.044777 0.0947,0.224967 0.19641,0.452964 0.3007,0.661546 0.009,0.01794 -0.0201,0.06014 0,0.06014 0.42033,0 0.0932,-0.760793 0.18042,-1.022389 0.0562,-0.168492 0.45659,0.770763 0.66155,0.360844"
       id="path49960"
       inkscape:export-filename="C:\Users\wenze\Desktop\campfire.png"
       inkscape:export-xdpi="32.512001"
       inkscape:export-ydpi="32.512001" />
    <path
       style="fill:#ffcc00;stroke:none;stroke-width:0.264583px;stroke-linecap:butt;stroke-linejoin:miter;stroke-opacity:1"
       d="m 87.444322,73.25116 c -1.470932,-0.571614 -3.099003,-0.09038 -4.630819,-0.240562 -0.971407,-0.09524 -0.916983,-0.326004 -1.683936,-0.661546 -0.200368,-0.08766 -0.525126,-0.06014 -0.721685,-0.06014 -0.59685,0 -1.058484,-0.05404 -1.142672,0.661545 -0.02341,0.199097 -0.0087,0.401127 0,0.601406 0.03016,0.693698 0.02947,1.23276 0.781828,1.383231 0.57848,0.115697 1.163212,0.197647 1.744075,0.300705 1.864622,0.330819 3.701566,0.720873 5.53293,1.202809 0.548674,0.144388 1.240512,0.291523 1.744075,0.601405 0.133344,0.08206 0.232574,0.210916 0.360841,0.300705 0.07345,0.05141 0.182219,0.05221 0.240562,0.120279 0.07026,0.08197 0.08982,0.197133 0.120282,0.300704 0.06997,0.23789 0.145354,0.476211 0.180422,0.721686 0.08115,0.568039 -0.0671,1.181933 0.12028,1.744075 0.01418,0.04253 0.0849,0.03262 0.120282,0.06014 0.145891,0.113472 0.253347,0.283011 0.420984,0.360844 0.920131,0.427204 1.602227,0.478509 2.586043,0.661545 0.420983,0.08019 0.841967,0.160375 1.262951,0.240562 0.220514,0.06014 0.437878,0.133334 0.661546,0.180422 0.158154,0.03329 0.327795,0.009 0.481123,0.06014 0.138938,0.04631 0.651037,0.388803 0.781826,0.481124 1.202443,0.848783 2.074902,2.054889 2.826604,3.307731 0.490323,0.817202 0.959176,1.646353 1.443376,2.46576 0.32205,0.545018 0.99545,1.474542 1.20281,2.044777 0.0766,0.210637 0.0659,0.444108 0.12028,0.661545 0.0262,0.104733 0.0991,0.194845 0.12028,0.300705 0.0239,0.11957 -0.0555,0.399404 0.0601,0.360841 0.42545,-0.141817 1.90813,-1.891752 2.10492,-2.285338 0.13053,-0.261073 0.13918,-0.568251 0.24056,-0.841968 0.0344,-0.0929 0.55998,-1.431348 0.72169,-1.563653 0.83855,-0.686091 2.58447,-0.414912 3.30773,-1.08253 0.5573,-0.514437 0.36818,-0.43861 0.66154,-1.142669 0.1104,-0.264948 0.25045,-0.516879 0.36085,-0.781828 0.0628,-0.150672 0.2283,-0.769569 0.42098,-0.962247 0.0826,-0.08266 0.20617,-0.11167 0.3007,-0.180422 0.12663,-0.09209 0.22659,-0.220149 0.36084,-0.300704 0.39863,-0.239173 0.91956,-0.332023 1.3231,-0.541264 0.5775,-0.299445 1.04195,-0.791609 1.62379,-1.082529 1.16449,-0.582245 3.04664,-0.56964 4.33012,-0.481124 0.57614,0.03973 3.4164,0.504338 3.72871,-0.120282 0.0448,-0.08965 0.01,-0.200967 0,-0.300702 -0.12496,-1.249648 -1.66576,-1.693738 -2.40562,-2.465763 -0.42435,-0.442793 -0.58387,-1.148135 -0.48112,-1.744075 0.18013,-1.044794 0.54842,-2.048401 0.84196,-3.067166 0.59748,-2.073579 1.28612,-4.115964 1.6238,-6.254615 0.22358,-1.416042 -0.0246,-2.927805 -0.18042,-4.330118 -0.0996,-0.896377 -0.0601,-1.806218 -0.0601,-2.706322 0,-0.08005 0.0127,-0.246089 -0.0601,-0.300705 -0.0481,-0.03608 -0.12029,0 -0.18043,0 -0.20047,0 -0.40132,-0.01251 -0.6014,0 -0.44199,0.02763 -0.88548,0.05238 -1.32309,0.120283 -2.03564,0.315875 -3.9903,1.021188 -6.0742,0.902107 -0.34258,-0.01958 -0.6933,-0.02305 -1.02239,-0.12028 -0.5605,-0.165605 -1.07861,-0.450908 -1.62379,-0.661545 -1.24561,-0.481259 -3.5815,-1.23961 -4.20984,-2.586043 -0.21613,-0.463148 -0.18812,-1.004969 -0.3007,-1.503513 -0.0643,-0.284718 -0.14541,-0.566026 -0.24056,-0.841968 -0.26109,-0.757174 -0.65394,-1.432822 -0.96225,-2.165059 -0.13718,-0.3258 -0.26185,-1.283494 -0.66155,-1.443373 -0.37006,-0.148024 -2.39438,1.419206 -2.5259,1.503513 -0.56611,0.362894 -1.735885,0.969835 -2.405617,1.142669 -0.345681,0.08921 -1.944182,8e-5 -2.225201,-0.06014 -0.254823,-0.0546 -0.485064,-0.191492 -0.721686,-0.300701 -0.931555,-0.429951 -0.523608,-0.420984 -0.902107,-0.420984 -0.02006,0 -0.05621,-0.01966 -0.06014,0 -0.118383,0.591902 0.09046,1.537861 0.12028,2.044777 0.01529,0.260159 -0.03839,0.524063 0,0.781828 0.102512,0.688295 0.310562,1.357706 0.420983,2.044776 0.07027,0.43724 0.06397,0.883838 0.120283,1.323092 0.044,0.343254 0.144811,0.678164 0.180419,1.022389 0.04332,0.418748 0,0.841968 0,1.262952 0,0.62145 0.05462,1.245309 0,1.864354 -0.05418,0.614114 -0.256289,1.56118 -0.420984,2.165059 -0.111614,0.409258 -0.35002,1.221582 -0.601403,1.623796 -0.357844,0.572548 -1.643671,0.501216 -2.165059,0.360844 -0.491141,-0.132231 -1.230426,-0.633902 -1.623796,-0.90211 -0.474059,-0.323223 -0.822949,-0.660464 -1.202809,-1.08253 -0.06705,-0.0745 -0.195736,-0.270073 -0.240561,-0.180419 -0.01794,0.03586 0.0027,0.08027 0,0.120279 -0.01738,0.2608 -0.0393,0.521283 -0.06014,0.781828 -0.04439,0.554845 -0.05502,1.522267 -0.180422,2.044777 -0.06516,0.27151 -0.212405,0.516935 -0.300701,0.781828 -0.152408,0.457226 -0.307436,0.914839 -0.420984,1.383231 -0.11747,0.484563 -0.111691,1.020244 -0.240562,1.503513 -0.03465,0.129937 -0.143478,0.23154 -0.180422,0.360844 -0.122851,0.429983 -0.119385,1.503064 -0.601406,1.744075 -0.04767,0.02384 -0.02416,-0.132654 -0.06014,-0.240561 z"
       id="path50273"
       inkscape:export-filename="C:\Users\wenze\Desktop\campfire.png"
       inkscape:export-xdpi="32.512001"
       inkscape:export-ydpi="32.512001" />
    <path
       style="fill:#ffdd55;stroke:none;stroke-width:0.264583px;stroke-linecap:butt;stroke-linejoin:miter;stroke-opacity:1;fill-opacity:1;opacity:0.28192371"
       d="m 89.006443,45.545102 c -0.267642,0.667343 -0.07034,1.364017 0.04252,2.041236 0.09204,0.552226 -0.08515,1.147557 0,1.701033 0.156758,1.018921 0.413523,2.094743 0.637887,3.10438 0.06042,0.271868 0.17028,0.532731 0.21263,0.80799 0.01294,0.08406 -0.0071,0.170397 0,0.255156 0.02611,0.313341 0.08768,0.32325 0.170103,0.680411 0.03887,0.168449 0,0.378867 0,0.552836 0,0.26933 0.02439,0.539766 0,0.80799 -0.02951,0.324556 -0.145606,0.622789 -0.21263,0.935567 -0.08411,0.392506 -0.08409,0.925893 0,1.318299 -0.02154,0.208897 0.123341,0.365787 0.170103,0.552834 0.195398,0.781592 -0.06485,0.176953 0.29768,1.063146 0.20038,0.48981 0.52528,0.962901 0.637887,1.4884 0.183825,0.857851 0.16256,1.587974 0.595363,2.381443 0.130725,0.239668 0.05933,0.260755 0.29768,0.340207 0.975024,0.325009 1.261745,0.20788 2.253866,0.04253 1.09542,-0.18257 0.812004,-0.033 1.956184,-0.467783 1.325052,-0.503521 2.653472,-1.291296 3.699743,-2.253866 0.506371,-0.465857 0.957521,-1.238248 1.318301,-1.82861 0.12717,-0.208097 0.3121,-0.379322 0.42526,-0.59536 0.10018,-0.191259 0.13539,-0.415711 0.25516,-0.59536 0.13911,-0.208666 0.34516,-0.364098 0.5103,-0.552836 0.59179,-0.676328 0.19021,-0.24909 0.72294,-0.978093 0.14891,-0.203772 0.32109,-0.389988 0.46779,-0.595361 0.19735,-0.276293 0.3849,-0.59917 0.55283,-0.89304 0.15721,-0.275111 -0.0947,0.02265 0.12758,-0.255156 0.0624,-0.07802 0.26486,-0.328914 0.3402,-0.38273 0.25696,-0.183544 0.87543,-0.380826 1.06315,-0.59536 0.0673,-0.07693 0.10998,-0.172488 0.1701,-0.255157 0.0534,-0.07341 0.12951,-0.131445 0.1701,-0.212627 0.0541,-0.108209 0.073,-0.358515 0.12758,-0.467786 0.0326,-0.06513 0.0758,-0.03325 0.12758,-0.08505 0.0954,-0.09544 0.15803,-0.243086 0.25515,-0.340207 0.0448,-0.04482 0.11939,-0.04701 0.17011,-0.08505 0.30588,-0.229415 -0.0898,0.04722 0.12757,-0.170103 0.0224,-0.02241 0.0709,-0.01418 0.0851,-0.04253 0.0323,-0.06465 0.0157,-0.145518 0.0425,-0.212629 0.0307,-0.07674 0.095,-0.136655 0.12758,-0.212628 0.2447,-0.570976 0.40177,-1.186272 0.68041,-1.743556 -0.0129,-0.09099 0.0688,-0.01535 0.0851,-0.04253 0.0393,-0.06546 0.0427,-0.149113 0.085,-0.212629 0.0929,-0.139295 0.46105,-0.20814 0.59536,-0.29768 0.2438,-0.162529 0.74136,-1.009227 0.80799,-1.275774 0.0241,-0.09654 0.0331,-0.444182 0,-0.510309 -0.0142,-0.02835 -0.0626,-0.02011 -0.0851,-0.04252 -0.0361,-0.03614 -0.0587,-0.08375 -0.085,-0.12758 -0.14676,-0.244596 -0.27321,-0.502618 -0.38273,-0.765463 -0.36351,-0.872419 0.10617,0.198083 -0.12758,-0.425257 -0.1322,-0.352544 -0.33401,-0.686202 -0.46778,-1.020619 -0.0372,-0.09307 -0.02,-0.200012 -0.0425,-0.29768 -0.0506,-0.219329 -0.1,-0.416873 -0.12757,-0.637887 -0.005,-0.0422 0.0134,-0.08723 0,-0.127577 -0.0162,-0.04849 -0.0661,-0.08012 -0.0851,-0.127577 -0.0544,-0.135945 0.0207,-0.365736 0,-0.510309 -0.0169,-0.118124 -0.085,-0.178557 -0.085,-0.297681 0,-0.595362 0,-1.190722 0,-1.786083 0,-0.270263 0.0235,-0.543851 -0.0425,-0.807989 -0.17737,-0.70947 -0.65166,-1.295046 -1.06315,-1.871134 -0.09,-0.12606 -0.13555,-0.290369 -0.21263,-0.425259 -0.28956,-0.506725 -0.56817,-0.921975 -1.10567,-1.19072 -0.12159,-0.0608 -0.8416,-0.0067 -0.89304,0 -0.14675,0.01913 -0.28055,0.09657 -0.42525,0.127576 -0.0555,0.01188 -0.11432,-0.01013 -0.17011,0 -0.33011,0.06002 -0.80279,0.146987 -1.10567,0.255154 -0.27031,0.09654 -0.46517,0.221239 -0.72294,0.340206 -0.20266,0.09354 -0.42615,0.184576 -0.63788,0.255157 -0.0555,0.01849 -0.11936,0.01352 -0.17011,0.04252 -0.0522,0.02984 -0.0786,0.09262 -0.12757,0.127579 -0.43552,0.311081 0.0494,-0.08065 -0.29768,0.127577 -0.1851,0.111056 -0.33861,0.296479 -0.51031,0.425257 -0.0113,0.0085 -0.0284,0 -0.0425,0 -0.0284,0.01418 -0.0597,0.02352 -0.085,0.04253 -0.122814,0.09211 -0.253743,0.158409 -0.382738,0.255154 -0.07576,0.05682 -0.133892,0.03256 -0.212627,0.08505 -0.06351,0.04234 -0.07684,0.129511 -0.127579,0.170103 -0.0495,0.0396 -0.119388,0.04701 -0.170101,0.08505 -0.134922,0.10119 -0.171924,0.928286 -0.127579,1.10567 0.01537,0.0615 0.07262,0.107942 0.08505,0.170103 0.05187,0.259329 0.06358,0.509461 0.127577,0.765464 0.01138,0.04555 0.03129,0.787942 0,0.850516 -0.04602,0.09205 -0.123216,0.16138 -0.170103,0.255154 -0.04902,0.09804 0.03723,1.037968 0.04253,1.063146 0.03135,0.148907 0.346353,0.943761 0.467784,1.10567 0.05446,0.07261 0.10592,0.148447 0.170103,0.212629 0.02241,0.02241 0.06603,0.01717 0.08505,0.04252 0.0222,0.02958 0.02035,0.140521 0.04253,0.170104 0.241713,0.322281 0.435833,0.66703 0.637883,1.020619 0.12139,0.212426 0.11551,0.275336 0.21263,0.552834 0.10962,0.313206 0.25576,0.614659 0.34021,0.935566 0.0291,0.110522 0.0211,0.227942 0.0425,0.340207 0.0676,0.355044 0.12529,0.713793 0.21263,1.063146 0.0529,0.211381 0.224,1.263412 0.12758,1.4884 -0.0558,0.130292 -0.14753,0.247957 -0.25515,0.340207 -0.23155,0.198472 -1.16878,0.45489 -1.44588,0.51031 -0.167378,0.03347 -0.34194,0.01447 -0.51031,0.04253 -0.08843,0.01474 -0.167492,0.06627 -0.255153,0.08505 -0.449623,0.09635 -0.946343,0.04253 -1.403353,0.04253 -0.426379,0 -1.185587,0.06464 -1.573453,0 -0.176639,-0.02944 -0.716053,-0.174477 -0.850514,-0.255154 -0.121552,-0.07293 -0.213421,-0.191762 -0.340206,-0.255156 -0.02535,-0.01267 -0.0597,0.01267 -0.08505,0 -0.147527,-0.07376 -0.03258,-0.117628 -0.127577,-0.21263 -0.02241,-0.02241 -0.06264,-0.02011 -0.08505,-0.04252 -0.144036,-0.144037 -0.307197,-0.406525 -0.382733,-0.595363 -0.01053,-0.02633 0.01267,-0.05969 0,-0.08505 -0.0586,-0.1172 -0.230486,-0.185693 -0.29768,-0.297681 -0.0319,-0.05316 0.01596,-0.07974 0,-0.127576 -0.06116,-0.183473 -0.195386,-0.331002 -0.255153,-0.51031 -0.02647,-0.0794 0.02532,-0.07963 -0.04253,-0.170103 -0.02405,-0.03208 -0.06712,-0.04919 -0.08505,-0.08505 -0.01267,-0.02535 0.01267,-0.05969 0,-0.08505 -0.03559,-0.07118 -0.132746,-0.137919 -0.170103,-0.212629 -0.06102,-0.122045 -0.07169,-0.202436 -0.170103,-0.340207 -0.04661,-0.06525 -0.128847,-0.101341 -0.170101,-0.170101 -0.112453,-0.18742 -0.09083,-0.397176 -0.170103,-0.595362 -0.055,-0.137496 -0.117388,-0.224579 -0.170103,-0.382731 -0.01902,-0.05705 -0.100682,-0.07379 -0.12758,-0.127579 -0.01701,-0.03402 0.01701,-0.09356 0,-0.127577 -0.06664,-0.133286 -0.219583,-0.240451 -0.255153,-0.38273 -0.01648,-0.06591 -0.01175,-0.151093 -0.04253,-0.21263 -0.08746,-0.174919 -0.233275,-0.307388 -0.340206,-0.467783 -0.08343,-0.125154 -0.388644,-0.789115 -0.425257,-0.935567 -0.0172,-0.06876 0.0088,-0.142301 0,-0.21263 -0.01524,-0.121914 -0.06104,-0.432768 -0.08505,-0.552833 -0.04942,-0.247119 -0.13561,-0.534403 -0.21263,-0.765466 -0.0063,-0.01902 -0.02835,-0.02835 -0.04253,-0.04252 -0.02835,-0.07088 -0.06408,-0.139232 -0.08505,-0.21263 -0.08682,-0.303882 0.01283,-0.631169 -0.04253,-0.935567 -0.01847,-0.101534 -0.06266,-0.19694 -0.08505,-0.29768 -0.06253,-0.281387 -0.04833,-0.615675 -0.127579,-0.893043 -0.01741,-0.06095 -0.06764,-0.109148 -0.08505,-0.170103 -0.03965,-0.138768 -0.02241,-0.54593 0,-0.68041 0.02066,-0.124 0.101995,-0.254813 0.127577,-0.382733 0.08879,-0.443945 0.132046,-0.901975 0.340207,-1.3183 0.271341,-0.542681 0.721685,-1.175964 0.382733,-1.78608 -0.142838,-0.257106 -0.540676,-0.499375 -0.80799,-0.552837 -0.0973,-0.01947 -0.199133,0.01159 -0.29768,0 -1.030129,-0.121192 0.260014,-0.08505 -0.978093,-0.08505 -0.08193,0 -0.629812,-0.03844 -0.680413,0.04252 -0.05469,0.08751 -0.07141,0.195389 -0.08505,0.29768 -0.05086,0.381421 0.05731,0.262573 -0.04252,0.595363 -0.0182,0.06072 -0.06968,0.108601 -0.08505,0.170103 -0.02772,0.110871 -0.01857,0.228457 -0.04252,0.340204 -0.07192,0.335627 -0.178141,0.675743 -0.21263,1.02062 -0.02837,0.283702 0,0.611761 0,0.89304 0,0.765466 0,1.530929 0,2.296393 0,0.425256 0,0.850516 0,1.275773 0,0.192148 -0.02521,0.406146 0,0.59536 0.03689,0.276691 0.193853,0.828794 0.29768,1.10567 0.0531,0.141607 0.154512,0.279966 0.21263,0.425259 0.03202,0.08006 0.004,0.178033 0.04252,0.255154 0.01418,0.02835 0.06264,0.02011 0.08505,0.04253 0.01151,0.01151 0.02622,0.206262 0.04253,0.255154 z"
       id="path93034"
       inkscape:export-filename="C:\Users\wenze\Desktop\campfire.png"
       inkscape:export-xdpi="32.512001"
       inkscape:export-ydpi="32.512001" />
    <path
       style="fill:#ff7f2a;stroke:none;stroke-width:0.264583px;stroke-linecap:butt;stroke-linejoin:miter;stroke-opacity:1"
       d="m 99.292007,63.929378 c 0.459364,1.194258 0.736883,2.946596 0.06014,4.149696 -0.159991,0.28443 -0.445526,0.487667 -0.721685,0.661546 -0.04345,0.02736 -1.377683,0.554913 -1.563653,0.601406 -0.255805,0.06395 -0.532659,0.03403 -0.781828,0.120279 -0.279704,0.09682 -0.517088,0.288616 -0.781828,0.420984 -0.212283,0.106143 -0.617373,0.219988 -0.781825,0.420984 -0.129995,0.158882 -0.241641,0.652965 -0.300704,0.841967 -0.167699,0.536639 -0.232191,0.770668 -0.601404,1.262952 -0.233695,0.311592 -0.52361,0.268885 -0.841967,0.481124 -0.141536,0.09436 -0.234408,0.247049 -0.360844,0.360844 -0.09541,0.08587 -0.282549,0.113487 -0.300702,0.240561 -0.02069,0.144878 -0.03895,0.686173 0,0.841968 0.104974,0.419896 1.952355,0.791112 2.285339,0.902108 0.863195,0.287731 1.681533,0.965094 2.285341,1.623792 1.51724,1.655173 0.158972,0.143309 1.262951,1.744076 0.530035,0.768551 1.215827,1.338712 1.804215,2.044779 0.235967,0.283162 0.957457,1.471043 1.262947,1.623793 0.47944,0.23972 0.58301,-0.624753 0.66155,-0.781825 0.1293,-0.258599 0.30362,-0.49347 0.48112,-0.721689 0.34361,-0.441777 1.08415,-0.928806 1.56366,-1.202809 1.18757,-0.678614 2.4493,-1.155715 3.72871,-1.623795 0.44071,-0.161237 0.8706,-0.35669 1.32309,-0.481124 0.35273,-0.097 0.72246,-0.115795 1.08253,-0.180422 1.58638,-0.284734 0.84747,-0.116237 2.16506,-0.541263 0.31982,-0.103169 0.67117,-0.132773 0.96225,-0.300704 0.24557,-0.141674 0.42084,-0.382834 0.6014,-0.601404 0.20187,-0.244371 0.45419,-0.477054 0.54127,-0.781827 0.12128,-0.424501 0.0482,-0.881767 0.0601,-1.323092 0.0162,-0.601186 0.0207,-1.203169 0,-1.804215 -0.0249,-0.720719 -0.1405,-1.501976 -0.0601,-2.225201 0.0607,-0.546677 0.16739,-1.003771 0.36084,-1.503513 0.30659,-0.79202 0.5348,-1.01785 0.60141,-1.683933 0.008,-0.07979 0,-0.160375 0,-0.240562 0,-0.06014 0.0425,-0.137898 0,-0.180422 -0.89494,-0.894932 -3.9754,-0.402024 -5.05181,-0.240562 -0.30763,0.04614 -1.32166,0.312603 -1.62379,0.18042 -0.21942,-0.096 -1.39266,-1.042377 -1.44338,-1.08253 -0.58821,-0.465672 -0.71292,-0.627456 -1.44337,-0.962247 -0.19026,-0.0872 -0.40061,-0.121364 -0.6014,-0.180422 -1.14279,-0.336113 -2.19507,-0.360841 -3.36787,-0.360841 -0.27443,0 -0.56977,-0.03025 -0.84197,0 -0.0821,0.0091 -0.16038,0.04009 -0.24056,0.06014 -0.12028,0.02006 -0.23965,0.04668 -0.36085,0.06014 -0.0598,0.0066 -0.12458,-0.02233 -0.18042,0 -0.544306,0.217723 0.2406,0.04295 -0.240557,0.180422 -0.237228,0.06778 -0.36862,0.122225 -0.601405,0.180422 z"
       id="path50341"
       inkscape:export-filename="C:\Users\wenze\Desktop\campfire.png"
       inkscape:export-xdpi="32.512001"
       inkscape:export-ydpi="32.512001" />
    <path
       style="fill:#cf9940;fill-opacity:1;stroke:none;stroke-width:0.264583px;stroke-linecap:butt;stroke-linejoin:miter;stroke-opacity:1"
       d="m 127.44975,44.014174 c -2.6e-4,-9.8e-5 -0.20732,-0.06644 -0.25515,-0.04253 -0.12774,0.06387 0.40063,0.550592 0.46778,0.595362 0.11893,0.07928 0.43895,0.06941 0.59536,0.08505 0.74293,0.07429 -0.11627,-0.0062 0.55283,0.127576 0.37991,0.07598 0.77513,0.05819 1.1482,0.170104 0.45331,0.135993 0.88989,0.272931 1.36083,0.340206 0.22957,0.0328 0.49131,0 0.72293,0 0.411,0 0.86739,-0.05445 1.27578,0 0.0614,0.0082 0.59984,0.09535 0.68041,0.127577 0.0474,0.019 0.0791,0.06889 0.12758,0.08505 0.27048,0.09016 0.57263,0.114527 0.85051,0.170103 0.007,0.0013 0.43763,0.157737 0.51031,0.08505 0.1137,-0.1137 -0.38805,-0.285277 -0.42526,-0.297681 -0.32939,-0.109796 -0.57611,-0.399362 -0.85051,-0.59536 -0.0565,-0.04037 -0.7569,-0.313457 -0.85052,-0.340206 -0.0818,-0.02336 -0.17213,0.01844 -0.25515,0 -0.41144,-0.09143 -0.81575,-0.185571 -1.23325,-0.255154 -0.19165,-0.03194 -0.43766,-0.110892 -0.63789,-0.127579 -0.12713,-0.01058 -0.25763,0.02503 -0.38273,0 -0.20072,-0.100359 -0.22849,-0.137308 -0.42526,-0.170103 -0.19315,-0.03219 -0.50897,-0.04219 -0.68041,-0.08505 -0.0615,-0.01537 -0.10822,-0.0713 -0.1701,-0.08505 -0.15965,-0.03548 -0.34968,-0.0068 -0.51031,-0.04253 -0.0745,-0.01656 -0.13923,-0.06408 -0.21263,-0.08505 -0.1655,-0.04728 -0.43092,0 -0.59536,0 -0.19006,0 -0.58205,-0.01331 -0.72294,0.12758"
       id="path66002"
       inkscape:export-filename="C:\Users\wenze\Desktop\campfire.png"
       inkscape:export-xdpi="32.512001"
       inkscape:export-ydpi="32.512001" />
    <path
       style="fill:#351e0f;fill-opacity:1;stroke:none;stroke-width:0.289029px;stroke-linecap:butt;stroke-linejoin:miter;stroke-opacity:1"
       d="m 129.85359,37.890464 c -0.0737,0.241427 -0.18833,0.454986 -0.27896,0.696269 -0.0109,0.02898 0.0122,0.0644 0,0.09283 -0.0356,0.08292 -0.10779,0.147613 -0.13947,0.23209 -0.0327,0.08693 0.0294,0.190437 0,0.278507 -0.0177,0.05293 -0.068,0.08936 -0.093,0.139255 -0.0372,0.07427 0.0372,0.20424 0,0.278507 -0.0752,0.150184 -0.10255,0.326243 -0.13948,0.510597 -0.0116,0.05803 0.0233,0.06963 0,0.139254 -0.0128,0.03831 -0.15948,0.119295 -0.0929,0.185671 0.27914,0.278709 1.46585,-0.01949 1.85968,0.09283 0.0666,0.019 0.12162,0.06714 0.18597,0.09284 0.0432,0.01725 0.0939,-0.0091 0.13948,0 0.30931,0.06177 -0.0345,0.02188 0.27894,0.139252 0.1795,0.06721 0.37112,0.09622 0.55791,0.139257 0.2911,0.06707 0.59137,0.07447 0.88335,0.139253 0.14352,0.03184 0.27393,0.112201 0.41842,0.139253 0.16825,0.03149 0.34432,0.0094 0.51142,0.04642 0.25984,0.05764 0.38534,0.185672 0.65089,0.185672 0.36583,0 1.13676,0.42822 1.48774,0.603432 0.20831,0.10399 0.47499,0.165478 0.69739,0.232091 0.15497,0.04642 0.30795,0.100071 0.46492,0.139252 0.0215,0.0053 0.45281,-0.03433 0.37193,0.04642 -0.0419,0.04186 -0.19643,-0.01048 -0.23246,-0.04642 -0.12384,-0.12364 -0.22008,-0.238683 -0.37193,-0.371343 -0.0694,-0.06067 -0.21321,-0.120031 -0.27896,-0.185672 -0.0245,-0.02446 -0.0188,-0.07207 -0.0465,-0.09283 -0.0784,-0.05871 -0.18796,-0.05649 -0.27896,-0.09283 -0.27219,-0.108705 -0.68894,-0.204663 -0.92984,-0.324925 -0.47117,-0.235213 -0.95592,-0.44218 -1.44125,-0.649851 -0.0637,-0.02727 -0.11873,-0.07606 -0.18597,-0.09283 -0.0601,-0.01502 -0.12461,0.0087 -0.18597,0 -0.12584,0.0789 -0.12022,-0.07095 -0.18597,-0.09283 -0.075,-0.02495 -0.16025,-0.01439 -0.23246,-0.04642 -0.14993,-0.06653 -0.33029,-0.206174 -0.51141,-0.278506 -0.10484,-0.04187 -0.27172,-0.0428 -0.37194,-0.09284 -0.13076,-0.06527 -0.23755,-0.174588 -0.37194,-0.232087 -0.0726,-0.03108 -0.16178,-0.01114 -0.23245,-0.04642 -0.40081,-0.200083 -0.82171,-0.371554 -1.20879,-0.603434 -0.0958,-0.05736 -0.24671,-0.06063 -0.32545,-0.139254 -0.0657,-0.06564 0.0131,-0.186605 0,-0.278505 0.0934,-0.08265 -0.0775,-0.139254 -0.093,-0.185673 -0.0146,-0.04403 0.0329,-0.106435 0,-0.139253 -0.0109,-0.01095 -0.0396,0.01383 -0.0465,0 -0.0415,-0.03662 0.0208,-0.09774 0,-0.139256 -0.01,-0.01958 -0.031,-0.03094 -0.0465,-0.04641 -0.0155,-0.03095 -0.031,-0.06189 -0.0465,-0.09283"
       id="path70876"
       inkscape:export-filename="C:\Users\wenze\Desktop\campfire.png"
       inkscape:export-xdpi="32.512001"
       inkscape:export-ydpi="32.512001" />
    <path
       style="opacity:0.253731;fill:#ffdd55;fill-opacity:1;stroke:none;stroke-width:0.264583px;stroke-linecap:butt;stroke-linejoin:miter;stroke-opacity:1"
       d="m 110.65206,45.119846 c -0.31582,-0.0354 -0.4173,0.188073 -0.55283,0.425257 -0.11636,0.203633 -0.25954,0.395181 -0.38273,0.59536 -0.20097,0.326575 -0.3667,0.643048 -0.55284,0.978093 -0.32561,0.586105 -0.10879,0.09001 -0.42526,0.722939 -0.0958,0.191694 -0.22006,0.469874 -0.25515,0.680411 -0.0781,0.468476 0.1092,0.04411 -0.0851,0.51031 -0.0445,0.177384 -0.18302,0.305477 -0.25516,0.467783 -0.17127,0.385358 0.12315,-0.06858 -0.12757,0.382733 -0.11949,0.21508 -0.27805,0.399076 -0.42526,0.59536 -0.5635,0.751332 -0.68733,1.687203 -0.25516,2.551546 0.0179,0.03586 0.0638,0.05105 0.0851,0.08505 0.28839,0.576779 -0.0466,-0.04861 0.29768,0.467784 0.20391,0.305866 0.13326,0.35642 0.46778,0.59536 0.4677,0.334068 1.02357,0.554982 1.4884,0.89304 0.10569,0.07687 0.19173,0.178639 0.29768,0.255156 0.46538,0.336103 0.94406,0.656781 1.44588,0.935567 0.42964,0.238688 1.77831,0.776721 2.16881,0.89304 0.24791,0.07385 0.51342,0.06941 0.76547,0.127577 0.11801,0.02723 0.22271,0.09821 0.3402,0.127579 0.11087,0.02772 0.22766,0.02268 0.34021,0.04252 0.19987,0.03527 0.393,0.112011 0.59536,0.12758 0.29948,0.02305 0.64037,-0.05535 0.93557,0 0.13217,0.02479 0.25123,0.0994 0.38273,0.127576 0.24845,0.05324 1.28469,0.0163 1.4884,0 1.19448,-0.09556 -0.18306,-0.07095 0.72294,-0.127576 0.5322,-0.03326 1.12524,0.110315 1.61598,-0.170104 0.0275,-0.01572 0.0178,-0.06525 0.0425,-0.08505 0.0495,-0.0396 0.12198,-0.04379 0.17011,-0.08505 0.11258,-0.0965 0.25664,-0.34244 0.3402,-0.467783 0.0447,-0.067 0.0699,-0.212199 0.17011,-0.255157 0.0664,-0.02847 0.14619,-0.01405 0.21263,-0.04253 0.0369,-0.0158 0.0567,-0.0567 0.085,-0.08505 0.0425,-0.02835 0.0806,-0.06492 0.12757,-0.08505 0.19932,-0.08542 0.4372,-0.09484 0.63789,-0.170103 0.0479,-0.01794 0.085,-0.0567 0.12758,-0.08505 0.0567,-0.02835 0.10996,-0.065 0.1701,-0.08505 0.0686,-0.02286 0.14552,-0.01569 0.21263,-0.04253 0.14378,-0.05751 0.62977,-0.313454 0.72294,-0.425257 0.0406,-0.0487 0.035,-0.131183 0.085,-0.170103 0.0852,-0.06628 0.20511,-0.07203 0.29768,-0.127579 0.11906,-0.07144 0.76043,-0.594807 0.80799,-0.680411 0.0435,-0.07837 0.0415,-0.176784 0.085,-0.255156 0.094,-0.09405 0.15342,-0.136742 0.21263,-0.255153 0.17069,-0.341379 0.0119,-0.08233 0.12758,-0.467784 0.0182,-0.06072 0.0726,-0.107939 0.0851,-0.170103 0.0167,-0.0834 -0.009,-0.170625 0,-0.255154 0.0175,-0.157919 0.12125,-0.766035 0.1701,-0.893042 0.0367,-0.09541 0.12439,-0.163727 0.17011,-0.255154 0.0683,-0.136554 0.12182,-0.280421 0.1701,-0.42526 0.0617,-0.185213 0.0958,-0.404606 0.12758,-0.59536 0.009,-0.05593 -0.0156,-0.115583 0,-0.170103 0.014,-0.04914 0.0649,-0.0806 0.085,-0.127577 0.0482,-0.112411 0.0879,-0.416589 0.0425,-0.552833 -0.0575,-0.172593 -0.23326,-0.148217 -0.3402,-0.255157 -0.13188,-0.131876 -0.25311,-0.293592 -0.34021,-0.467783 -0.12194,-0.243872 0.0466,-0.757211 -0.0425,-0.935567 -0.0662,-0.132341 -0.13256,-0.232537 -0.17011,-0.382733 -0.0211,-0.08428 -0.029,-0.180422 -0.085,-0.255153 -0.14221,-0.189619 -0.3573,-0.422482 -0.55283,-0.552836 -0.0914,-0.06094 -0.23834,-0.131136 -0.34021,-0.212628 -0.16741,-0.133929 -0.28977,-0.298108 -0.46778,-0.425259 -0.1833,-0.130924 0.0182,0.10328 -0.25516,-0.170103 -0.0334,-0.0334 -0.28487,-0.550524 -0.29768,-0.59536 -0.0649,-0.227061 0.11154,0.0955 -0.0425,-0.212628 -0.0834,-0.166896 -0.22696,-0.283707 -0.3402,-0.425259 -0.13423,-0.167786 0.0861,0.0011 -0.12758,-0.212627 -0.17689,-0.176895 -0.58757,-0.442627 -0.80799,-0.552836 -0.15455,-0.07728 -0.40155,-0.09446 -0.55283,-0.170104 -0.21358,-0.106788 -0.4033,-0.262009 -0.63789,-0.340206 -0.15804,-0.05268 -0.42795,0 -0.59536,0 -0.37625,0 -0.77279,0.03413 -1.1482,0 -0.14187,-0.01289 -0.28619,-0.01162 -0.42525,-0.04253 -0.0745,-0.01656 -0.13753,-0.0714 -0.21263,-0.08505 -0.19525,-0.0355 -0.39691,0 -0.59536,0 -0.46969,0 -0.938,-0.0092 -1.40336,0.04253 -0.1791,0.0199 -0.33546,0.08387 -0.5103,0.127577 -0.11899,0.08914 -0.25743,0.01469 -0.38274,0.04253 -0.25839,0.05742 -0.51463,0.179906 -0.76546,0.255153 -0.1944,0.05832 -0.39634,0.08777 -0.59536,0.127577 -0.0834,0.01669 -0.17062,-0.0094 -0.25516,0 -0.7434,0.0826 0.33599,-0.01082 -0.42525,0.127577 -0.0686,0.01249 -0.38462,-0.0104 -0.46779,0 -0.20932,0.02617 -0.40054,0.114443 -0.59536,0.170103 -0.14132,0.04038 -0.32472,0.0068 -0.46778,0.04253 -0.14971,0.03742 -0.27305,0.105833 -0.42526,0.127576 -0.0561,0.008 -0.11509,-0.01376 -0.1701,0 -0.0615,0.01537 -0.10915,0.06764 -0.17011,0.08505 -0.11042,0.03155 -0.27598,0.0024 -0.38273,0.04253 -0.43744,0.164042 0.0107,0.127577 -0.42526,0.127577"
       id="path79959"
       inkscape:export-filename="C:\Users\wenze\Desktop\campfire.png"
       inkscape:export-xdpi="32.512001"
       inkscape:export-ydpi="32.512001" />
    <path
       style="fill:#ffdd55;stroke:none;stroke-width:0.264583px;stroke-linecap:butt;stroke-linejoin:miter;stroke-opacity:1;fill-opacity:1;opacity:0.38971808"
       d="m 85.519328,81.181701 c -0.191109,0.242268 -0.276924,0.544285 -0.425257,0.80799 -0.519195,0.923009 0.121131,-0.392716 -0.467783,0.637886 -0.04448,0.07784 -0.04864,0.173228 -0.08505,0.255154 -0.06997,0.15743 -0.205219,0.286562 -0.297682,0.425257 -0.141452,0.21218 -0.285515,0.428276 -0.425257,0.637886 -0.108469,0.162703 -0.322832,0.25849 -0.467784,0.382733 -0.337952,0.289674 0.01926,0.07278 -0.467783,0.382733 -0.413409,0.263078 -0.896247,0.449192 -1.275773,0.765464 -0.225859,0.188214 -0.267248,0.29963 -0.425257,0.51031 -0.138454,0.184605 -0.323633,0.330118 -0.467783,0.510307 -0.07618,0.09522 -0.131617,0.206542 -0.21263,0.29768 -0.03396,0.0382 -0.09486,0.04579 -0.127577,0.08505 -0.107661,0.129193 -0.09122,0.303845 -0.21263,0.425257 -0.07046,0.07046 -0.20221,0.149267 -0.255153,0.255156 -0.03012,0.06024 -0.02199,0.151032 -0.04253,0.212627 -0.02675,0.08024 -0.195241,0.02513 -0.255153,0.08505 -0.06614,0.06614 -0.250786,0.331465 -0.297683,0.425257 -0.03347,0.06694 0.0067,0.273645 0,0.340206 -0.04122,0.412234 -0.04252,0.817542 -0.04252,1.233247 0,0.234836 -0.06095,0.995815 0,1.148196 0.01897,0.04745 0.07265,0.07799 0.08505,0.127577 0.05041,0.201655 -0.03891,0.349248 0.04253,0.552837 0.0053,0.01315 0.02835,0 0.04253,0 0.01418,0.04253 0.03619,0.0832 0.04252,0.127576 0.008,0.05613 -0.01558,0.115584 0,0.170104 0.01405,0.04914 0.06429,0.08087 0.08505,0.127576 0.146955,0.33065 0.292325,0.635842 0.51031,0.935567 0.08863,0.121865 0.222919,0.209375 0.29768,0.340207 0.029,0.05074 0.01413,0.119012 0.04252,0.170103 0.04408,0.07934 0.119756,0.137107 0.170103,0.21263 0.06049,0.09074 0.104106,0.241207 0.170103,0.340206 0.05466,0.08199 0.153385,0.133636 0.21263,0.212627 0.04123,0.05497 0.117761,0.202811 0.170103,0.255156 0.180748,0.180745 0.406213,0.332899 0.552834,0.552834 0.203211,0.304816 0.02077,1.097772 0.255156,1.488403 0.146159,0.243599 0.421881,0.713036 0.637887,0.89304 0.03443,0.0287 0.08505,0.02835 0.127577,0.04253 0.04253,0.02835 0.08877,0.05179 0.127577,0.08505 0.371628,0.31854 0.722659,0.444005 1.148196,0.680413 0.135017,0.07501 0.281387,0.240133 0.425257,0.29768 0.02633,0.01053 0.05873,-0.01053 0.08505,0 0.193228,0.07729 0.392311,0.204393 0.59536,0.255156 0.06574,0.01643 0.213841,-0.04131 0.255156,0 0.02241,0.02241 0.02011,0.06264 0.04252,0.08505 0.04509,0.04509 0.553265,0.01053 0.595363,0 0.335298,-0.08383 0.545102,-0.40013 0.850513,-0.552834 0.07276,-0.03638 0.370708,-0.05778 0.42526,-0.08505 0.05379,-0.02689 0.07601,-0.09663 0.127577,-0.127577 0.02432,-0.01458 0.05873,0.01053 0.08505,0 0.131813,-0.05272 0.293783,-0.190942 0.382733,-0.29768 0.07964,-0.09557 0.392816,-0.692951 0.467783,-0.722939 0.05264,-0.02106 0.11384,0.007 0.170104,0 0.648829,-0.0811 1.323363,-0.01381 1.913659,-0.382731 0.196969,-0.123105 0.359537,-0.296394 0.552834,-0.425259 0.06877,-0.04585 0.151469,-0.07198 0.21263,-0.127577 0.0967,-0.08791 0.159123,-0.209037 0.255153,-0.29768 0.0896,-0.08271 0.202462,-0.136454 0.297683,-0.21263 0.434729,-0.347784 0.896334,-0.651399 1.318297,-1.020617 0.137893,-0.120655 0.268788,-0.282826 0.382733,-0.425257 0.0396,-0.0495 0.04545,-0.120602 0.08505,-0.170103 0.03812,-0.124462 0.18428,-0.127579 0.255157,-0.21263 0.107696,-0.129235 0.0359,-0.143869 0.127576,-0.212629 0.324245,-0.243184 0.710042,-0.362702 1.063144,-0.552834 0.0301,-0.01622 0.370316,-0.242739 0.425259,-0.29768 0.06418,-0.06418 0.09923,-0.15593 0.170104,-0.21263 0.07425,-0.0594 0.180901,-0.06817 0.255153,-0.127577 0.242562,-0.19405 0.267462,-0.470019 0.425257,-0.680413 0.07291,-0.09721 0.153054,-0.193423 0.21263,-0.29768 0.03787,-0.06628 0.04068,-0.150511 0.08505,-0.212629 0.02971,-0.04159 0.09144,-0.04891 0.12758,-0.08505 0.165409,-0.165409 0.06967,-0.140787 0.212627,-0.255156 0.137411,-0.109926 0.180689,-0.07967 0.29768,-0.255154 0.04234,-0.06351 0.03478,-0.15518 0.08505,-0.212629 0.05443,-0.0622 0.158199,-0.06537 0.212627,-0.127577 0.05027,-0.05745 0.04718,-0.146352 0.08505,-0.21263 0.07531,-0.131794 0.09254,-0.02996 0.127577,-0.170103 0.0069,-0.0275 -0.01458,-0.06074 0,-0.08505 0.03094,-0.05157 0.09774,-0.07536 0.127576,-0.127577 0.058,-0.101492 0.03278,-0.235657 0.08505,-0.340207 0.04059,-0.08119 0.129511,-0.131445 0.170104,-0.212629 0.03156,-0.06312 0.0609,-0.308005 0.08505,-0.340207 0.03608,-0.04811 0.100682,-0.07378 0.127577,-0.127577 0.06014,-0.120279 0.08203,-0.256201 0.127579,-0.38273 0.193889,-0.538586 0.611061,-1.474838 0.467783,-2.083763 -0.121255,-0.515332 -0.627814,-1.245095 -0.978093,-1.61598 -0.50183,-0.531349 -1.094033,-0.985938 -1.658506,-1.445876 -0.187137,-0.152485 -0.348131,-0.339845 -0.552834,-0.467784 -0.140697,-0.08794 -0.31243,-0.111847 -0.467783,-0.170103 -0.714674,-0.268002 -1.429787,-0.609021 -2.168816,-0.80799 -0.195979,-0.05276 -0.400521,-0.07075 -0.59536,-0.127577 -0.401828,-0.1172 -0.465775,-0.217844 -0.850516,-0.382733 -0.05372,-0.02302 -0.116896,-0.01833 -0.170104,-0.04253 -0.254518,-0.115689 -0.467817,-0.310894 -0.722937,-0.425257 -0.261916,-0.117409 -0.542771,-0.187936 -0.807989,-0.29768 -0.146442,-0.0606 -0.277551,-0.155186 -0.425257,-0.21263 -0.574429,-0.223388 -1.270445,-0.127577 -1.871136,-0.127577 -0.184277,0 -0.371713,-0.03396 -0.552834,0 -0.106106,0.0199 -0.196382,0.09026 -0.29768,0.127577 -1.939697,0.646565 0.487326,-0.199506 -0.80799,0.340207 -0.06672,0.0278 -0.144952,0.01714 -0.21263,0.04253 -0.199315,0.07474 -0.335579,0.31663 -0.38273,0.340207 -0.01267,0.0063 -0.0325,-0.01003 -0.04253,0 -0.03395,0.03395 0,0.284459 0,0.340206"
       id="path86119"
       inkscape:export-filename="C:\Users\wenze\Desktop\campfire.png"
       inkscape:export-xdpi="32.512001"
       inkscape:export-ydpi="32.512001" />
    <path
       style="opacity:0.378109;fill:#ffdd55;fill-opacity:1;stroke:none;stroke-width:0.278549px;stroke-linecap:butt;stroke-linejoin:miter;stroke-opacity:1"
       d="m 94.100183,49.791711 c -0.05861,-0.136802 -0.106918,-0.278868 -0.175825,-0.410402 -0.882499,-1.684522 0.09652,0.297525 -0.7033,-1.162803 -0.264066,-0.482142 -0.37831,-1.025533 -0.593408,-1.527602 -0.03064,-0.0715 -0.07746,-0.134555 -0.109891,-0.205202 -0.04094,-0.0892 -0.0657,-0.186081 -0.10989,-0.273599 -0.143258,-0.283726 -0.36761,-0.519983 -0.549451,-0.7752 -0.295305,-0.414474 -0.298833,-0.704526 -0.373627,-1.185603 -0.06489,-0.417395 -0.105835,-0.523358 -0.175825,-0.934801 -0.02915,-0.171388 -0.05225,-0.472819 -0.109891,-0.638404 -0.06013,-0.172743 -0.151312,-0.332228 -0.219779,-0.5016 -0.108974,-0.26958 -0.01671,-0.1462 -0.153847,-0.4104 -0.07647,-0.147328 -0.176725,-0.275781 -0.241759,-0.433201 -0.103464,-0.250448 -0.109891,-0.481763 -0.109891,-0.752401 0,-0.0836 -0.01507,-0.168677 0,-0.250803 0.02004,-0.109112 0.150897,-0.445114 0.219782,-0.547199 0.18392,-0.272569 0.770196,-0.421248 1.054946,-0.456003 0.285379,-0.03483 0.595142,0.0491 0.879123,0 0.08939,-0.01546 0.174671,-0.05107 0.263736,-0.0684 0.137701,-0.02678 0.30501,-0.02653 0.439563,-0.0684 0.08479,-0.02639 0.15957,-0.0799 0.241759,-0.114 0.150569,-0.06248 0.303404,-0.122316 0.46154,-0.159599 0.0718,-0.01694 0.146971,-0.01146 0.21978,-0.02281 0.07388,-0.01148 0.145441,-0.03788 0.219781,-0.04559 0.30233,-0.03137 0.740709,0.06915 1.010991,0.159598 0.174209,0.0583 0.798644,0.360588 0.923079,0.456003 0.05892,0.04518 0.08419,0.124696 0.131867,0.182397 0.04046,0.04896 0.09739,0.08315 0.131872,0.136803 0.08096,0.125996 0.07868,0.292183 0.131868,0.433201 0.02984,0.07912 0.07838,0.149563 0.10989,0.227998 0.155305,0.386676 0.273239,0.789879 0.461537,1.162804 0.104479,0.206916 0.265884,0.360866 0.395607,0.547201 0.05593,0.08034 0.09767,0.17066 0.153845,0.2508 0.06124,0.08736 0.139148,0.161554 0.197805,0.250801 0.2796,0.425416 0.01934,0.08144 0.197802,0.433201 0.04449,0.08769 0.105987,0.165043 0.153847,0.250801 0.04677,0.08382 0.169844,0.364647 0.197803,0.433201 0.141576,0.34715 0.232695,0.710797 0.395603,1.048802 0.270745,0.561739 0.101327,0.173313 0.351649,0.592799 0.165829,0.277898 0.161322,0.377571 0.37363,0.684002 0.110191,0.159045 0.487476,0.492402 0.571426,0.684 0.0676,0.154286 0.10254,0.319264 0.15385,0.478803 0.0999,0.310691 0.0266,0.05665 0.15384,0.3648 0.0524,0.126953 0.10993,0.273853 0.13188,0.4104 0.009,0.06045 0.007,0.123196 0.022,0.1824 0.0144,0.05593 0.0516,0.10368 0.066,0.159602 0.0514,0.200036 0.022,0.455344 0.022,0.661202 0,0.304203 0.0104,0.608946 -0.022,0.912 -0.14686,1.371118 -1.457984,1.483467 -2.527482,1.504803 -0.46619,0.0093 -0.903675,-0.04346 -1.362641,-0.113998 -0.07283,-0.01121 -0.147586,-0.0078 -0.219782,-0.02281 -0.111521,-0.02315 -0.217622,-0.07099 -0.32967,-0.0912 -0.151572,-0.02735 -0.308409,0.01538 -0.46154,0 -0.133066,-0.01336 -0.265609,-0.03604 -0.395604,-0.0684 -0.2552,-0.06354 -0.629543,-0.392062 -0.835167,-0.5472 -0.07531,-0.05682 -0.337716,-0.236347 -0.417584,-0.319202 -0.0755,-0.07832 -0.132852,-0.186968 -0.197803,-0.273602 -0.03778,-0.05039 -0.109889,-0.113861 -0.109889,-0.1824"
       id="path89370"
       inkscape:export-filename="C:\Users\wenze\Desktop\campfire.png"
       inkscape:export-xdpi="32.512001"
       inkscape:export-ydpi="32.512001" />
    <path
       style="fill:#000000;stroke:#000000;stroke-width:0.264583px;stroke-linecap:butt;stroke-linejoin:miter;stroke-opacity:1;fill-opacity:1"
       d="m 87.220359,98.574741 c 0.08505,-0.01418 0.176659,-0.0069 0.255156,-0.04253 0.08263,-0.03756 0.137107,-0.119753 0.212627,-0.170103 0.125624,-0.08375 1.07737,-0.574172 1.148196,-0.68041 0.03242,-0.04863 0.01834,-0.116896 0.04253,-0.170104 0.18855,-0.414813 0.472186,-0.699111 0.850516,-0.935566 0.279503,-0.174692 0.579311,-0.36321 0.89304,-0.467784 0.526511,-0.175506 -0.106923,0.108948 0.425257,-0.127579 0.298516,-0.132673 0.0813,-0.0615 0.467784,-0.29768 0.343122,-0.209685 0.698939,-0.3541 1.020619,-0.59536 0.146225,-0.10967 0.279032,-0.145487 0.425257,-0.255154 0.09623,-0.07217 0.162753,-0.178154 0.255156,-0.255156 0.161632,-0.134692 0.422569,-0.344361 0.59536,-0.467783 0.05159,-0.03685 0.119388,-0.04701 0.170104,-0.08505 0.305109,-0.228833 0.561319,-0.520208 0.80799,-0.80799 0.126997,-0.148164 0.384013,-0.427823 0.467783,-0.59536 0.02614,-0.05228 0.01638,-0.117829 0.04253,-0.170103 0.01508,-0.03016 0.220639,-0.187362 0.255154,-0.170103 0.118761,0.05938 0.08505,0.189166 0.08505,0.29768 0,0.342447 -0.05888,0.651904 -0.340204,0.89304 -0.101536,0.08703 -0.233225,0.132392 -0.340206,0.21263 -0.38131,0.28598 -0.789395,0.394316 -1.23325,0.552833 -0.114056,0.04074 -0.238027,0.06256 -0.340203,0.12758 -0.0598,0.03805 -0.08145,0.116289 -0.12758,0.170103 -0.116594,0.136025 -0.270888,0.242927 -0.38273,0.38273 -0.266367,0.332957 -0.374097,0.615696 -0.765464,0.850517 -1.025218,0.61513 -2.146977,0.859216 -3.146909,1.573453 -0.166399,0.118856 -0.310113,0.256596 -0.467783,0.38273 -0.128273,0.102619 -0.307816,0.180242 -0.425257,0.297683 -0.02241,0.02241 -0.01818,0.06476 -0.04253,0.08505 -0.09368,0.07807 -0.191807,0.152131 -0.29768,0.21263 -0.187167,0.106953 -0.722937,0.229799 -0.722937,0.51031"
       id="path99397"
       inkscape:export-filename="C:\Users\wenze\Desktop\campfire.png"
       inkscape:export-xdpi="32.512001"
       inkscape:export-ydpi="32.512001" />
    <path
       style="opacity:0.404643;fill:#ffdd55;fill-opacity:1;stroke:none;stroke-width:0.264583px;stroke-linecap:butt;stroke-linejoin:miter;stroke-opacity:1"
       d="m 95.640464,93.301544 c 0.237469,1.382771 0.427807,2.767205 0.80799,4.125002 0.106468,0.380251 0.288745,0.73514 0.425256,1.10567 0.161195,0.437528 0.303001,0.882108 0.467784,1.318297 0.166775,0.441467 0.36916,0.866627 0.51031,1.318307 0.153392,0.49086 0.05169,0.40002 0.170103,1.06314 0.249941,1.39968 0.03145,-0.77723 0.170103,1.23325 7.94e-4,0.0128 0.0689,0.78995 0.08505,0.85051 0.2901,1.08788 -0.04206,-1.14458 0.21263,0.80799 0.05902,0.45249 0.0075,0.91091 0.08505,1.36083 0.03972,0.23038 0.124254,0.45117 0.170104,0.68041 0.05035,0.25174 0.05112,0.51099 0.08505,0.76546 0.05753,0.43152 0.177853,0.85063 0.255153,1.27578 0.01013,0.0558 -0.01376,0.11509 0,0.1701 0.01537,0.0615 0.06501,0.10996 0.08505,0.1701 0.10423,0.10141 0.01114,0.23032 0.04253,0.34021 0.0321,0.11235 0.09038,0.27114 0.127577,0.38273 0.02927,0.0878 0.09175,0.0984 0.127579,0.1701 0.04636,0.0927 0.0016,0.29939 0.08505,0.38274 0.01148,0.0115 1.400627,-0.0425 1.615977,-0.0425 0.46779,0 0.93557,0 1.40335,0 0.18428,0 0.36987,0.022 0.55284,0 0.20151,-0.0242 0.39846,-0.0784 0.59536,-0.12758 0.0615,-0.0154 0.1086,-0.0697 0.1701,-0.085 0.19462,-0.0487 -0.0442,0.0859 0.21263,-0.0425 0.0741,-0.0371 0.20281,-0.17991 0.25516,-0.21262 0.31548,-0.19719 0.67606,-0.29606 1.02061,-0.42526 0.23131,-0.0867 0.32933,-0.19815 0.59537,-0.25516 0.15969,-0.0342 0.48454,-0.058 0.63788,-0.0851 0.1287,-0.0227 0.25276,-0.0714 0.38273,-0.085 0.74444,-0.0784 1.5077,0.0705 2.25387,-0.0425 1.27571,-0.19329 0.0677,-0.085 0.93556,-0.34021 0.12315,-0.0362 0.25853,-0.0101 0.38274,-0.0425 0.54558,-0.14232 1.06273,-0.38263 1.61598,-0.51031 0.21128,-0.0487 0.43217,-0.059 0.63788,-0.12757 0.0426,-0.0142 0.5899,-0.31329 0.63789,-0.42526 0.10083,-0.23528 -0.0234,-0.49218 0.0425,-0.72294 0.0428,-0.14981 0.14434,-0.28868 0.21262,-0.42526 0.019,-0.038 -0.0103,-0.0863 0,-0.12757 0.0217,-0.087 0.0675,-0.16725 0.0851,-0.25516 0.0306,-0.15309 0,-0.35381 0,-0.51031 0,-0.41801 0.0378,-0.86012 0,-1.27577 -0.0326,-0.35867 -0.1132,-0.50908 -0.17011,-0.85051 -0.0211,-0.12662 -0.0161,-0.25713 -0.0425,-0.38274 -0.0778,-0.36972 -0.19071,-0.78447 -0.29768,-1.14819 -0.052,-0.17679 -0.16414,-0.33253 -0.21263,-0.51031 -0.0264,-0.0967 -0.0162,-0.20098 -0.0425,-0.29768 -0.0167,-0.0612 -0.0726,-0.10794 -0.085,-0.17011 -0.0167,-0.0834 0.008,-0.17052 0,-0.25515 -0.0465,-0.4648 -0.0425,-0.93096 -0.0425,-1.403354 0,-0.165264 0.0302,-0.429498 0,-0.595363 -0.016,-0.0882 -0.0714,-0.166544 -0.085,-0.255153 -0.0345,-0.224166 0,-0.453607 0,-0.680413 0,-0.668507 0.0606,-1.374532 0,-2.041237 -0.0432,-0.474848 -0.19424,-0.963549 -0.38273,-1.40335 -0.0704,-0.164206 -0.16897,-0.335666 -0.21263,-0.51031 -0.0757,-0.302887 -0.0425,-0.666795 -0.0425,-0.978093 0,-0.581184 0,-1.16237 0,-1.743556 0,-0.196186 0.0384,-0.488307 0,-0.680414 -0.0124,-0.06216 -0.0676,-0.109148 -0.0851,-0.1701 -0.0555,-0.194321 -0.0516,-0.437314 -0.085,-0.637887 -0.048,-0.287819 -0.19597,-0.511204 -0.29768,-0.765466 -0.0372,-0.09306 -0.0229,-0.199392 -0.0425,-0.29768 -0.0739,-0.369234 -0.13379,-0.737738 -0.21263,-1.10567 -0.0537,-0.250497 -0.0258,-0.306665 -0.12758,-0.51031 -0.0326,-0.06528 0.0148,-0.181274 0,-0.255153 -0.0256,-0.128151 -0.0437,-0.258749 -0.0851,-0.382733 -0.118,-0.354005 -0.36135,-0.724599 -0.63789,-0.978093 -0.49384,-0.452692 -0.99741,-0.407474 -1.61598,-0.382731 -0.98595,0.03944 -1.94505,0.289865 -2.89175,0.552834 -0.11263,0.03129 -0.23075,0.04401 -0.3402,0.08505 -0.2911,0.109159 -0.56,0.272058 -0.85052,0.38273 -0.57817,0.220255 -1.07668,0.301406 -1.70103,0.255157 -0.3279,-0.02429 -1.07011,-0.281184 -1.40335,-0.170104 -0.44327,0.147757 -0.9656,0.451948 -1.3183,0.765464 -0.0382,0.03396 -0.0425,0.09923 -0.0851,0.127576 -0.0486,0.03242 -0.11936,0.01352 -0.1701,0.04253 -0.0522,0.02984 -0.0801,0.09065 -0.12758,0.127577 -0.272109,0.21164 -0.593514,0.309393 -0.807991,0.595362 -0.058,0.07733 -0.04287,0.255834 -0.08505,0.340204 -0.0317,0.06339 -0.08505,0.113403 -0.127577,0.170104 -0.04253,0.127579 -0.07763,0.257873 -0.127577,0.382733 -0.186938,0.467341 -0.476456,0.913688 -0.765463,1.318299 -0.227867,0.319011 -0.90877,0.657056 -1.233249,0.89304 -0.182261,0.132554 -0.329933,0.332502 -0.510307,0.467784 -0.05072,0.03804 -0.125278,0.04022 -0.170104,0.08505 -0.404945,0.404942 -0.03745,0.07235 -0.127579,0.29768 -0.08309,0.207722 -0.225004,0.377333 -0.29768,0.59536 -0.124399,0.373197 -0.220298,0.740193 -0.382731,1.10567"
       id="path99568"
       inkscape:export-filename="C:\Users\wenze\Desktop\campfire.png"
       inkscape:export-xdpi="32.512001"
       inkscape:export-ydpi="32.512001" />
  </g>
</svg>
