<?xml version="1.0" encoding="UTF-8" standalone="no"?>
<!-- Created with Inkscape (http://www.inkscape.org/) -->

<svg
   width="210mm"
   height="297mm"
   viewBox="0 0 210 297"
   version="1.1"
   id="svg5"
   inkscape:version="1.1.2 (b8e25be833, 2022-02-05)"
   sodipodi:docname="icons.svg"
   xmlns:inkscape="http://www.inkscape.org/namespaces/inkscape"
   xmlns:sodipodi="http://sodipodi.sourceforge.net/DTD/sodipodi-0.dtd"
   xmlns="http://www.w3.org/2000/svg"
   xmlns:svg="http://www.w3.org/2000/svg">
  <sodipodi:namedview
     id="namedview7"
     pagecolor="#ffffff"
     bordercolor="#666666"
     borderopacity="1.0"
     inkscape:pageshadow="2"
     inkscape:pageopacity="0.0"
     inkscape:pagecheckerboard="true"
     inkscape:document-units="mm"
     showgrid="false"
     inkscape:zoom="1.5554293"
     inkscape:cx="572.83221"
     inkscape:cy="746.09627"
     inkscape:window-width="2286"
     inkscape:window-height="2041"
     inkscape:window-x="1532"
     inkscape:window-y="0"
     inkscape:window-maximized="0"
     inkscape:current-layer="layer1" />
  <defs
     id="defs2">
    <inkscape:path-effect
       effect="mirror_symmetry"
       start_point="121.99138,149.79337"
       end_point="121.64054,178.50192"
       center_point="121.81596,164.14765"
       id="path-effect1005"
       is_visible="true"
       lpeversion="1.1"
       mode="free"
       discard_orig_path="false"
       fuse_paths="false"
       oposite_fuse="false"
       split_items="false"
       split_open="false" />
    <inkscape:path-effect
       effect="mirror_symmetry"
       start_point="90.929687,40.032266"
       end_point="50.394973,68.109318"
       center_point="70.66233,54.070792"
       id="path-effect1647"
       is_visible="true"
       lpeversion="1.1"
       mode="free"
       discard_orig_path="false"
       fuse_paths="false"
       oposite_fuse="false"
       split_items="false"
       split_open="false" />
  </defs>
  <g
     inkscape:label="Layer 1"
     inkscape:groupmode="layer"
     id="layer1">
    <path
       style="fill:none;stroke:#000000;stroke-width:4;stroke-linecap:round;stroke-linejoin:miter;stroke-opacity:1;fill-opacity:1;stroke-miterlimit:4;stroke-dasharray:none"
       d="M 155.64433,33.935566 122.55928,49.159794"
       id="path1180"
       inkscape:export-filename="C:\Users\wenze\Documents\Unity\Eons\Assets\Resources\Sprites\UI\arrow.png"
       inkscape:export-xdpi="260.10001"
       inkscape:export-ydpi="260.10001" />
    <path
       style="fill:none;fill-opacity:1;stroke:#000000;stroke-width:4;stroke-linecap:round;stroke-linejoin:miter;stroke-miterlimit:4;stroke-dasharray:none;stroke-opacity:1"
       d="M 155.64433,64.384022 122.55928,49.159794"
       id="path1328"
       inkscape:export-filename="C:\Users\wenze\Documents\Unity\Eons\Assets\Resources\Sprites\UI\arrow.png"
       inkscape:export-xdpi="260.10001"
       inkscape:export-ydpi="260.10001" />
    <path
       id="path3780"
       style="fill:#000000;fill-opacity:1;stroke:#000000;stroke-width:0.999999px;stroke-linecap:butt;stroke-linejoin:miter;stroke-opacity:1"
       d="M 196.23438 165.61328 C 163.56092 166.35462 154.32857 253.83249 178.47852 262.72852 C 184.70272 265.0213 196.06749 268.92766 208.65234 273.20312 L 246.24219 241.19336 L 249.95703 206.35742 L 196.23438 165.61328 z M 279.7207 171.2832 C 277.05568 171.3604 272.99464 174.97178 266.80664 185.80078 C 263.02817 192.4131 259.3817 199.12357 255.9043 205.66797 L 253.64062 234.89453 L 275.00391 216.70312 C 280.05314 199.46665 284.80859 183.87109 284.80859 183.87109 C 284.80859 183.87109 284.80848 171.13583 279.7207 171.2832 z M 278.17773 227.76172 L 252.59766 248.36523 L 249.60547 286.97852 C 273.80117 295.0421 294.96484 302.01953 294.96484 302.01953 C 294.96484 302.01953 361.02351 310.91519 352.5 298.3125 C 343.97649 285.70982 302.7793 246.41992 302.7793 246.41992 L 278.17773 227.76172 z M 244.80859 254.63867 L 213.77734 279.63281 C 188.28236 316.9868 145.62401 380.51624 143.36914 390.88867 C 140.15459 405.67558 90.007813 514.32812 90.007812 514.32812 C 90.007812 514.32812 117.6516 518.18527 126.65234 511.11328 C 135.65307 504.04126 182.58594 382.53125 182.58594 382.53125 C 182.58594 382.53125 215.72827 332.25474 241.00391 290.33008 L 244.80859 254.63867 z "
       transform="scale(0.26458333)"
       inkscape:export-filename="C:\Users\wenze\Documents\Unity\Eons\Assets\Resources\Sprites\UI\hammer.png"
       inkscape:export-xdpi="400"
       inkscape:export-ydpi="400" />
    <circle
       style="fill:#000000;fill-opacity:1;stroke-width:1.5;stroke-linecap:round;paint-order:stroke fill markers"
       id="path869"
       cx="122.24575"
       cy="142.84886"
       r="13.097938"
       inkscape:export-filename="C:\Users\wenze\Documents\Unity\Eons\Assets\Resources\Sprites\popicon.png"
       inkscape:export-xdpi="100"
       inkscape:export-ydpi="100" />
    <path
       style="fill:#000000;fill-opacity:1;stroke:#000000;stroke-width:0.264583px;stroke-linecap:butt;stroke-linejoin:miter;stroke-opacity:1"
       d="m 104.99614,149.94587 c 2.58029,0.45676 3.83327,4.5765 11.47163,7.37583 3.12001,1.14343 5.33698,1.1877 5.33698,1.1877 l -0.17048,19.52474 c 0,0 -12.43894,0.0758 -17.16102,-3.93102 -4.722083,-4.00678 -4.36765,-24.19977 0.52282,-24.15725 z m 33.98168,0.41528 c -2.59068,0.39357 -3.94397,4.48146 -11.64845,7.09329 -3.14703,1.06684 -5.36442,1.05692 -5.36442,1.05692 l -0.30671,19.52307 c 0,0 12.43338,0.37976 17.25196,-3.51047 4.81859,-3.89018 4.95774,-24.08581 0.0677,-24.16281 z"
       id="path1003"
       inkscape:path-effect="#path-effect1005"
       inkscape:original-d="m 104.99614,149.94587 c 2.58029,0.45676 3.83327,4.5765 11.47163,7.37583 3.12001,1.14343 5.33698,1.1877 5.33698,1.1877 l -0.17048,19.52474 c 0,0 -12.43894,0.0758 -17.16102,-3.93102 -4.722083,-4.00678 -4.36765,-24.19977 0.52282,-24.15725 z"
       sodipodi:nodetypes="cscczcc"
       inkscape:export-filename="C:\Users\wenze\Documents\Unity\Eons\Assets\Resources\Sprites\popicon.png"
       inkscape:export-xdpi="100"
       inkscape:export-ydpi="100" />
  </g>
</svg>
