<?xml version="1.0" encoding="UTF-8" standalone="no"?>
<!-- Created with Inkscape (http://www.inkscape.org/) -->

<svg
   width="212.24634mm"
   height="278.18146mm"
   viewBox="0 0 212.24634 278.18146"
   version="1.1"
   id="svg5"
   inkscape:version="1.1.2 (b8e25be833, 2022-02-05)"
   sodipodi:docname="person-cutout.svg"
   inkscape:export-filename="C:\Users\wenze\Documents\Unity\Eons\Assets\Resources\Sprites\person-cutout.png"
   inkscape:export-xdpi="32.512001"
   inkscape:export-ydpi="32.512001"
   xmlns:inkscape="http://www.inkscape.org/namespaces/inkscape"
   xmlns:sodipodi="http://sodipodi.sourceforge.net/DTD/sodipodi-0.dtd"
   xmlns="http://www.w3.org/2000/svg"
   xmlns:svg="http://www.w3.org/2000/svg">
  <sodipodi:namedview
     id="namedview7"
     pagecolor="#ffffff"
     bordercolor="#666666"
     borderopacity="1.0"
     inkscape:pageshadow="2"
     inkscape:pageopacity="0.0"
     inkscape:pagecheckerboard="false"
     inkscape:document-units="mm"
     showgrid="false"
     inkscape:zoom="1.0998546"
     inkscape:cx="-122.57898"
     inkscape:cy="562.56646"
     inkscape:window-width="3840"
     inkscape:window-height="2054"
     inkscape:window-x="-11"
     inkscape:window-y="-11"
     inkscape:window-maximized="1"
     inkscape:current-layer="layer1"
     inkscape:rotation="-1"
     fit-margin-top="0"
     fit-margin-left="0"
     fit-margin-right="0"
     fit-margin-bottom="0" />
  <defs
     id="defs2">
    <inkscape:path-effect
       effect="mirror_symmetry"
       start_point="91.161165,58.175257"
       end_point="91.161165,190.18815"
       center_point="91.161165,124.18171"
       id="path-effect2141"
       is_visible="true"
       lpeversion="1.1"
       mode="free"
       discard_orig_path="false"
       fuse_paths="false"
       oposite_fuse="false"
       split_items="false"
       split_open="false" />
    <inkscape:path-effect
       effect="mirror_symmetry"
       start_point="123.32473,56.644329"
       end_point="123.32473,138.38841"
       center_point="123.32473,97.516369"
       id="path-effect1616"
       is_visible="true"
       lpeversion="1.1"
       mode="free"
       discard_orig_path="false"
       fuse_paths="false"
       oposite_fuse="false"
       split_items="false"
       split_open="false" />
    <clipPath
       clipPathUnits="userSpaceOnUse"
       id="clipPath1237">
      <path
         id="path1239"
         style="fill:#686868;fill-opacity:1;stroke:none;stroke-width:0.264583px;stroke-linecap:butt;stroke-linejoin:miter;stroke-opacity:1"
         d="m 108.82643,68.770997 c -13.162013,0.07221 -27.061062,1.69273 -28.951719,3.346048 -2.83427,2.478434 -7.499284,9.141561 -7.499284,9.141561 0,0 -10.206308,25.685584 -5.783625,46.097964 4.42268,20.41237 16.160049,-62.768159 19.562111,-35.891869 3.402063,26.876289 -19.732103,117.541639 -2.721797,90.495249 17.010314,-27.0464 8.505327,-52.73186 18.711524,-68.38135 10.20617,-15.649485 -0.68027,97.97909 11.73726,70.7626 12.41752,-27.2165 -3.40229,-103.932796 7.4843,-99.680217 10.8866,4.252574 1.0207,50.350387 9.86606,42.355547 8.84536,-7.99485 8.62719,-49.107195 0.97255,-54.890701 -3.3489,-2.530284 -13.14026,-3.411 -23.37738,-3.354832 z" />
    </clipPath>
    <filter
       inkscape:collect="always"
       style="color-interpolation-filters:sRGB"
       id="filter1610"
       x="-0.0082710436"
       y="-0.0052050649"
       width="1.0165421"
       height="1.0104101">
      <feGaussianBlur
         inkscape:collect="always"
         stdDeviation="0.27383427"
         id="feGaussianBlur1612" />
    </filter>
    <clipPath
       clipPathUnits="userSpaceOnUse"
       id="clipPath1995">
      <path
         style="fill:#686868;fill-opacity:1;stroke:none;stroke-width:0.188;stroke-linecap:butt;stroke-linejoin:miter;stroke-miterlimit:4;stroke-dasharray:none;stroke-opacity:1"
         d="m 111.80152,41.590719 c 2.77602,4.210881 1.21136,16.699558 -7.26815,16.843521 -8.479494,0.14396 -23.823362,-8.421759 -18.069413,-19.146906 5.75395,-10.725145 22.561533,-1.907493 25.337563,2.303385 z"
         id="path1997"
         sodipodi:nodetypes="zssz"
         inkscape:export-filename="C:\Users\wenze\Desktop\person.png"
         inkscape:export-xdpi="32.512001"
         inkscape:export-ydpi="32.512001" />
    </clipPath>
  </defs>
  <g
     inkscape:groupmode="layer"
     id="layer2"
     inkscape:label="Stone"
     style="display:inline"
     transform="translate(-4.4009141,8.1221541)">
    <path
       id="path7725"
       style="display:inline;fill:#a9a9a9;fill-opacity:1;stroke:none;stroke-width:1.05722px;stroke-linecap:butt;stroke-linejoin:miter;stroke-opacity:1"
       d="M 331.4668 3.875 C 328.31817 3.9001967 325.30547 3.9770377 322.4375 4.1035156 C 230.66245 8.1508118 175.87152 86.397856 95.054688 224.00586 C 95.054687 224.00586 24.861196 354.68682 12.533203 404.60352 C 0.20521241 454.52008 -8.1862486 795.79384 79.986328 967.35938 C 173.17603 1148.6872 522.42516 987.59632 586.80469 937.67969 C 651.18418 887.76305 886.78448 485.73114 770.35352 265.82812 C 657.56092 52.797114 429.07435 3.0939011 331.4668 3.875 z M 349.05078 94.787109 C 385.21444 94.290116 426.93064 119.41666 436.59375 134.04297 C 451.31841 156.33069 443.01838 222.43334 398.04102 223.19531 C 353.06379 223.95728 271.67696 178.61857 302.19727 121.85156 C 312.68862 102.33791 330.10791 95.047439 349.05078 94.787109 z M 388.83984 251.56836 C 439.4984 251.27107 487.95134 255.93366 504.52344 269.32617 C 542.40258 299.93762 543.48233 517.53965 499.71094 559.85547 C 455.93951 602.17125 504.76119 358.18223 450.88867 335.67383 C 397.01619 313.1654 475.29995 719.21564 413.85156 863.26953 C 352.40324 1007.3234 406.27502 405.8995 355.76953 488.73047 C 305.26399 571.5615 347.3516 707.5124 263.17578 850.66602 C 178.99998 993.8195 293.4797 513.93682 276.64453 371.68359 C 259.80937 229.4304 201.72555 669.69665 179.83984 561.65625 C 157.95412 453.61577 208.46094 317.66406 208.46094 317.66406 C 208.46094 317.66406 231.54489 282.39737 245.57031 269.2793 C 254.92627 260.52847 323.70737 251.95056 388.83984 251.56836 z "
       transform="matrix(0.26458333,0,0,0.26458333,4.4009141,-8.1221541)"
       inkscape:export-filename="C:\Users\wenze\Documents\Unity\Eons\Assets\Resources\Sprites\person-cutout.png"
       inkscape:export-xdpi="100"
       inkscape:export-ydpi="100" />
    <path
       id="path4213"
       style="display:inline;fill:#cacaca;fill-opacity:1;stroke:none;stroke-width:1.03213px;stroke-linecap:butt;stroke-linejoin:miter;stroke-opacity:1"
       d="M 308.97266 0.0078125 C 305.82403 0.031827372 302.81133 0.10601706 299.94336 0.2265625 C 208.16831 4.0840201 153.37738 78.662905 72.560547 209.81641 C 72.560547 209.81641 16.400256 343.53993 4.0722656 391.11523 C -8.255725 438.69049 6.8104448 739.57199 57.492188 918.30078 C 108.17393 1097.0295 499.93102 937.58897 564.31055 890.01367 C 628.69004 842.43838 864.29232 459.2642 747.86133 249.67578 C 635.06873 46.636995 406.58019 -0.73664852 308.97266 0.0078125 z M 349.05078 94.787109 C 385.21444 94.290116 426.93064 119.41666 436.59375 134.04297 C 451.31841 156.33069 443.01838 222.43334 398.04102 223.19531 C 353.06379 223.95728 271.67696 178.61857 302.19727 121.85156 C 312.68862 102.33791 330.10791 95.047439 349.05078 94.787109 z M 388.83984 251.56836 C 439.4984 251.27107 487.95134 255.93366 504.52344 269.32617 C 542.40258 299.93762 543.48233 517.53965 499.71094 559.85547 C 455.93951 602.17125 504.76119 358.18223 450.88867 335.67383 C 397.01619 313.1654 475.29995 719.21564 413.85156 863.26953 C 352.40324 1007.3234 406.27502 405.8995 355.76953 488.73047 C 305.26399 571.5615 347.3516 707.5124 263.17578 850.66602 C 178.99998 993.8195 293.4797 513.93682 276.64453 371.68359 C 259.80937 229.4304 201.72555 669.69665 179.83984 561.65625 C 157.95412 453.61577 208.46094 317.66406 208.46094 317.66406 C 208.46094 317.66406 231.54489 282.39737 245.57031 269.2793 C 254.92627 260.52847 323.70737 251.95056 388.83984 251.56836 z "
       transform="matrix(0.26458333,0,0,0.26458333,4.4009141,-8.1221541)"
       inkscape:export-filename="C:\Users\wenze\Documents\Unity\Eons\Assets\Resources\Sprites\person-cutout.png"
       inkscape:export-xdpi="100"
       inkscape:export-ydpi="100" />
    <path
       id="path7311"
       style="fill:#d6d6d6;fill-opacity:1;stroke:none;stroke-width:0.999999px;stroke-linecap:butt;stroke-linejoin:miter;stroke-opacity:1"
       d="M 290.54297 0.55273438 C 176.69122 3.7090844 -1.834439 300.64173 0.53710938 411.54102 C 24.108089 899.19344 20.200548 932.03815 150.19141 998.47461 C 188.96566 1018.2916 225.60674 958.99222 256.55273 861.22852 C 185.36433 966.99548 293.0057 509.9316 276.64453 371.68359 C 259.80937 229.4304 201.72555 669.69665 179.83984 561.65625 C 157.95412 453.61577 208.46094 317.66406 208.46094 317.66406 C 208.46094 317.66406 231.54489 282.39737 245.57031 269.2793 C 252.86545 262.45599 296.31997 255.75681 345.97266 252.94727 C 346.32603 238.08073 346.39558 223.85406 346.38086 209.84766 C 341.98621 207.67074 337.68429 205.25514 333.55664 202.61914 C 333.55419 202.61758 333.55127 202.6168 333.54883 202.61523 C 325.31521 197.35629 317.78809 191.22398 311.63867 184.37695 C 311.58673 184.31913 311.53612 184.26105 311.48438 184.20312 C 308.48872 180.84903 305.8285 177.32502 303.57617 173.64844 C 303.52359 173.56263 303.46815 173.47855 303.41602 173.39258 C 302.31842 171.582 301.32205 169.73314 300.43359 167.85156 C 300.38907 167.7573 300.34671 167.6628 300.30273 167.56836 C 299.41178 165.65443 298.6235 163.70887 297.96875 161.72656 C 297.31868 159.75843 296.80211 157.75561 296.4043 155.72461 C 296.38027 155.60197 296.35315 155.48028 296.33008 155.35742 C 295.94724 153.31811 295.69081 151.24999 295.58203 149.15234 C 295.58071 149.12688 295.57745 149.10164 295.57617 149.07617 C 295.46801 146.92158 295.50712 144.73851 295.70898 142.52734 C 295.91079 140.31682 296.27587 138.07854 296.80859 135.81641 C 296.81474 135.79029 296.82193 135.7644 296.82812 135.73828 C 297.36022 133.49484 298.05922 131.2268 298.9375 128.9375 C 298.95052 128.90357 298.96347 128.86988 298.97656 128.83594 C 299.86659 126.52924 300.93474 124.19983 302.19727 121.85156 C 303.30226 119.7963 304.48589 117.88195 305.73828 116.0918 C 305.76266 116.05696 305.78612 116.02107 305.81055 115.98633 C 307.05627 114.21461 308.37173 112.56958 309.75 111.04688 C 309.77756 111.01643 309.80637 110.98738 309.83398 110.95703 C 316.82988 103.26681 325.44614 98.700527 334.87695 96.472656 C 334.93414 96.459155 334.99158 96.446923 335.04883 96.433594 C 336.9109 95.999775 338.80364 95.65409 340.72266 95.396484 C 340.72597 95.39604 340.72911 95.394975 340.73242 95.394531 C 334.04035 39.581216 321.29568 4.1499243 301.35156 1.1796875 C 297.82177 0.65400204 294.21561 0.45091663 290.54297 0.55273438 z M 425.86914 252.33203 C 425.96938 252.3371 426.06781 252.34254 426.16797 252.34766 C 426.06744 252.34252 425.96976 252.33712 425.86914 252.33203 z M 511.16602 277.12891 C 511.18548 277.15961 511.20322 277.19184 511.22266 277.22266 C 511.20321 277.19183 511.18549 277.15962 511.16602 277.12891 z M 516.95117 288.78125 C 516.96723 288.82147 516.98396 288.86008 517 288.90039 C 516.98394 288.86003 516.96725 288.82152 516.95117 288.78125 z M 447.31445 334.78711 C 446.19417 334.72155 445.142 334.88364 444.15625 335.26172 C 446.12876 334.50461 448.3634 334.61875 450.88867 335.67383 C 449.62604 335.14629 448.4354 334.85271 447.31445 334.78711 z M 469.39258 360.60156 C 470.2032 363.03165 470.94573 365.5941 471.62695 368.27539 C 470.94568 365.59353 470.20329 363.03214 469.39258 360.60156 z M 471.6543 368.38281 C 473.03386 373.83256 474.15944 379.77044 475.07617 386.07227 C 474.15958 379.77081 473.03364 373.83237 471.6543 368.38281 z M 532.42578 386.35938 C 532.42994 386.48379 532.43342 386.60794 532.4375 386.73242 C 532.43341 386.60759 532.42996 386.48414 532.42578 386.35938 z M 530.46875 457.23047 C 530.45863 457.3412 530.44964 457.45183 530.43945 457.5625 C 530.44966 457.45155 530.45861 457.34149 530.46875 457.23047 z M 514.05273 536.4375 C 514.03435 536.4828 514.01646 536.52704 513.99805 536.57227 C 514.01647 536.52701 514.03434 536.48284 514.05273 536.4375 z M 503.71484 555.3418 C 503.69505 555.36742 503.67411 555.39242 503.6543 555.41797 C 503.67413 555.39241 503.69503 555.36744 503.71484 555.3418 z M 328.86523 580.58203 C 327.99152 587.54261 327.21128 594.65302 326.47266 601.9043 C 327.21121 594.65354 327.99161 587.54213 328.86523 580.58203 z M 311.81055 719.79492 C 311.78976 719.89982 311.76891 720.00445 311.74805 720.10938 C 311.76893 720.00434 311.78974 719.89993 311.81055 719.79492 z M 277.55859 823.86328 C 277.52426 823.93375 277.48751 824.00375 277.45312 824.07422 C 277.48752 824.00372 277.52425 823.93377 277.55859 823.86328 z "
       transform="matrix(0.26458333,0,0,0.26458333,4.4009141,-8.1221541)"
       inkscape:export-filename="C:\Users\wenze\Documents\Unity\Eons\Assets\Resources\Sprites\person-cutout.png"
       inkscape:export-xdpi="100"
       inkscape:export-ydpi="100" />
  </g>
  <g
     inkscape:label="Person"
     inkscape:groupmode="layer"
     id="layer1"
     style="display:inline"
     transform="translate(-4.4009141,8.1221541)">
    <path
       id="path3027"
       style="fill:#686868;fill-opacity:1;stroke:none;stroke-width:0.358268px;stroke-linecap:butt;stroke-linejoin:miter;stroke-opacity:1"
       d="m -118.13354,98.293223 c -17.23297,0.101124 -35.43093,2.370517 -37.90636,4.685837 -3.71089,3.47083 -9.81877,12.80193 -9.81877,12.80193 0,0 -13.36308,35.97037 -7.57248,64.55608 5.79059,28.58569 21.15828,-87.901183 25.61258,-50.26335 4.45431,37.63783 -25.83515,164.6065 -3.56364,126.73047 22.27152,-37.87606 11.13599,-73.84624 24.49891,-95.76195 13.36292,-21.91569 -0.89066,137.21092 15.36755,99.09667 16.258216,-38.11426 -4.4546,-145.54854 9.79916,-139.59319 14.253766,5.95535 1.33641,70.51119 12.917596,59.31514 11.58118,-11.19606 11.29554,-68.77022 1.27335,-76.8695 -4.3847,-3.543432 -17.204486,-4.776796 -30.607896,-4.698137 z" />
    <path
       style="fill:#686868;fill-opacity:1;stroke:none;stroke-width:0.263559;stroke-linecap:butt;stroke-linejoin:miter;stroke-miterlimit:4;stroke-dasharray:none;stroke-opacity:1"
       d="m -145.54707,32.093279 c 3.8959,5.896959 1.70004,23.386228 -10.20022,23.587834 -11.90022,0.201604 -33.434,-11.793917 -25.35883,-26.81352 8.07516,-15.019601 31.66313,-2.671272 35.55905,3.225686 z"
       id="path3435"
       sodipodi:nodetypes="zssz"
       inkscape:export-filename="C:\Users\wenze\Desktop\person.png"
       inkscape:export-xdpi="32.512001"
       inkscape:export-ydpi="32.512001" />
    <path
       id="rect975"
       style="opacity:1;mix-blend-mode:normal;fill:#000000;stroke-width:0.188;filter:url(#filter1610)"
       d="M 64.148932,67.639939 V 193.902 H 143.60713 V 67.639939 Z m 46.005458,3.025656 c 10.23713,-0.05617 20.02848,0.824548 23.37739,3.354832 7.65464,5.783506 7.87281,46.895853 -0.97255,54.890703 -8.84536,7.99484 1.35342,-43.390337 -10.85156,-44.47799 -11.64156,-1.037442 4.62731,72.75913 -7.7902,99.97563 -12.41754,27.21649 0.18535,-87.631087 -11.73727,-70.76261 -7.95711,11.25794 3.54328,46.09627 -17.420124,70.20839 -20.06891,23.08327 9.270576,-66.6775 2.708974,-92.961612 -6.316708,-25.303124 -15.126608,58.770602 -19.549287,38.358232 -4.422683,-20.41238 5.783625,-46.097967 5.783625,-46.097967 0,0 4.665014,-6.663126 7.499283,-9.14156 1.890657,-1.653318 15.789706,-3.273838 28.951719,-3.346048 z"
       clip-path="url(#clipPath1237)"
       sodipodi:nodetypes="cccccssssssssscss"
       transform="matrix(1.3092954,0,0,1.40041,-394.70497,-35.241661)"
       inkscape:export-filename="C:\Users\wenze\Documents\Unity\Eons\Assets\Resources\Sprites\person-cutout.png"
       inkscape:export-xdpi="100"
       inkscape:export-ydpi="100" />
    <path
       id="rect1889"
       style="opacity:1;fill:#000000;stroke-width:0.188"
       d="M 84.330327,34.434031 V 61.684564 H 115.49328 V 34.434031 c -10.3605,-0.250118 -20.676249,-0.912625 -31.162953,0 z m 11.422557,1.191144 c 6.817886,-0.0939 14.682656,4.653727 16.504426,7.417117 2.77602,4.210881 1.21122,16.699455 -7.26829,16.843417 -8.479499,0.14396 -23.823137,-8.421489 -18.069187,-19.146636 1.977919,-3.686768 5.261779,-5.064715 8.833051,-5.113898 z"
       clip-path="url(#clipPath1995)"
       sodipodi:nodetypes="cccccsssss"
       transform="matrix(1.4034126,0,0,1.40041,-387.54337,-44.47799)"
       inkscape:export-filename="C:\Users\wenze\Documents\Unity\Eons\Assets\Resources\Sprites\person-cutout.png"
       inkscape:export-xdpi="100"
       inkscape:export-ydpi="100" />
  </g>
</svg>
