<?xml version="1.0" encoding="UTF-8" standalone="no"?>
<!-- Created with Inkscape (http://www.inkscape.org/) -->

<svg
   version="1.1"
   id="svg27"
   width="266.66666"
   height="266.66666"
   viewBox="0 0 266.66666 266.66666"
   sodipodi:docname="tribe-icon.svg"
   inkscape:version="1.1.2 (b8e25be833, 2022-02-05)"
   xmlns:inkscape="http://www.inkscape.org/namespaces/inkscape"
   xmlns:sodipodi="http://sodipodi.sourceforge.net/DTD/sodipodi-0.dtd"
   xmlns="http://www.w3.org/2000/svg"
   xmlns:svg="http://www.w3.org/2000/svg">
  <defs
     id="defs31" />
  <sodipodi:namedview
     id="namedview29"
     pagecolor="#ffffff"
     bordercolor="#666666"
     borderopacity="1.0"
     inkscape:pageshadow="2"
     inkscape:pageopacity="0"
     inkscape:pagecheckerboard="true"
     showgrid="false"
     inkscape:zoom="4.8153974"
     inkscape:cx="140.38301"
     inkscape:cy="142.66735"
     inkscape:window-width="3840"
     inkscape:window-height="2054"
     inkscape:window-x="-11"
     inkscape:window-y="-11"
     inkscape:window-maximized="1"
     inkscape:current-layer="g33" />
  <g
     inkscape:groupmode="layer"
     inkscape:label="Image"
     id="g33">
    <path
       style="fill:#ffffff;stroke-width:1.33333"
       d="m 64.336163,204.07955 c -0.953055,-0.60454 -2.605108,-3.99754 -3.671231,-7.53999 -1.708968,-5.67846 -1.70156,-6.80229 0.0626,-9.49473 1.159034,-1.76891 4.386879,-3.67245 7.671231,-4.52395 3.118628,-0.80852 9.53079,-2.52198 14.249252,-3.8077 l 8.579016,-2.33768 -8.579016,-2.33028 c -19.778029,-5.3722 -20.898743,-6.40882 -18.132676,-16.7719 2.973632,-11.14073 0.290793,-11.38534 65.084921,5.9342 77.13429,20.6181 71.67543,18.94194 73.29971,22.50687 1.80728,3.96652 -0.48764,12.84448 -4.18523,16.19076 -2.63123,2.38122 -3.46197,2.2372 -33.16772,-5.75062 l -30.46889,-8.19302 -32.07662,8.62901 c -32.872487,8.84312 -35.674906,9.38592 -38.665347,7.48903 z M 173.73566,165.40546 c -9.71667,-2.65152 -17.66667,-5.179 -17.66667,-5.6166 0,-1.06294 31.1134,-9.23598 35.15979,-9.23598 4.10338,0 5.61538,1.93584 7.56765,9.689 1.25294,4.97587 1.2392,6.74463 -0.0645,8.3156 -2.24999,2.71107 -4.59355,2.41555 -24.99619,-3.15202 z M 103.6855,139.91303 c -9.448029,-8.63496 -13.355979,-17.3231 -13.506169,-30.02681 -0.17004,-14.3834 2.48721,-19.486481 22.848009,-43.878136 9.85028,-11.800359 18.17874,-21.455198 18.50768,-21.455198 1.62757,0 35.62757,42.039985 38.05436,47.053074 8.193,16.92446 1.93954,40.89986 -13.44944,51.56442 -5.84554,4.05096 -7.30426,4.26597 -5.45119,0.80349 0.75913,-1.41845 1.38024,-4.98731 1.38024,-7.93077 0,-4.45734 -1.08652,-6.64466 -6.50108,-13.08766 -3.5756,-4.25474 -8.25567,-9.38325 -10.40016,-11.39668 l -3.89908,-3.66079 -8.59984,9.54187 c -4.72991,5.24803 -9.32858,10.79538 -10.21926,12.32746 -2.00459,3.44812 -2.1764,10.7634 -0.33367,14.20657 2.37535,4.43839 -0.80941,2.90431 -8.4304,-4.06084 z"
       id="path153" />
  </g>
</svg>
